<svg width="298" height="298" viewBox="0 0 298 298" fill="none" xmlns="http://www.w3.org/2000/svg">
<g style="mix-blend-mode:overlay">
<path d="M297.725 148.989C297.725 231.134 231.133 297.726 148.988 297.726C66.8429 297.726 0.250977 231.134 0.250977 148.989C0.250977 66.8438 66.8429 0.251953 148.988 0.251953C231.133 0.251953 297.725 66.8438 297.725 148.989Z" fill="#FBCE51"/>
<path d="M213.233 276.568L213.056 276.199L213.731 275.737L211.848 271.973L211.698 273.218L210.839 276.936L210.922 277.142L211.625 276.917L211.801 277.286L209.729 278.338L209.552 277.969L210.118 277.57L207.799 272.862L207.139 273.099L206.962 272.73L209.077 271.69L209.254 272.058L208.645 272.446L210.56 276.265L210.687 275.105L211.568 271.301L211.412 271.03L210.654 271.286L210.478 270.917L212.593 269.877L212.769 270.246L212.161 270.634L214.48 275.341L215.129 275.148L215.305 275.516L213.233 276.568Z" fill="#F9B01F"/>
<path d="M208.105 278.913C207.877 279.081 207.714 279.175 207.551 279.269C207.388 279.363 207.225 279.457 207.074 279.509C206.445 279.799 205.905 279.93 205.465 279.858C205.025 279.786 204.717 279.566 204.52 279.1C204.355 278.688 204.318 278.311 204.465 277.937C204.611 277.563 204.874 277.266 205.211 277.035C204.745 277.232 204.325 277.257 203.94 277.154C203.566 277.008 203.312 276.756 203.135 276.387C202.876 275.813 202.862 275.35 203.074 274.902C203.286 274.454 203.755 274.074 204.493 273.721C204.807 273.576 205.11 273.473 205.347 273.445C205.596 273.374 205.833 273.346 205.973 273.337C206.113 273.329 206.21 273.309 206.253 273.32L206.702 274.726L206.334 274.903L205.661 273.988C205.349 273.951 205.003 274.042 204.538 274.238C204.18 274.372 203.983 274.595 203.903 274.894C203.822 275.194 203.87 275.528 204.036 275.94C204.181 276.254 204.392 276.495 204.68 276.618C204.969 276.741 205.346 276.704 205.812 276.508L206.332 276.28L206.54 276.703L206.074 276.899C205.868 276.982 205.694 277.119 205.508 277.299C205.365 277.49 205.265 277.692 205.207 277.907C205.193 278.132 205.21 278.412 205.324 278.672C205.457 279.03 205.68 279.227 205.937 279.296C206.194 279.365 206.485 279.305 206.843 279.171C207.06 279.046 207.266 278.963 207.397 278.815C207.529 278.666 207.606 278.549 207.629 278.464L207.47 277.687L207.947 277.447L208.551 278.619C208.497 278.65 208.334 278.744 208.105 278.913Z" fill="#F9B01F"/>
<path d="M201.244 281.39L201.924 281.25L202.089 281.662L201.018 282.063C200.855 282.157 200.606 282.229 200.346 282.343C200.086 282.456 199.923 282.551 199.814 282.613C199.1 282.881 198.529 282.957 198.143 282.854C197.758 282.751 197.461 282.488 197.307 282.033C197.173 281.676 197.137 281.299 197.271 280.968C197.363 280.625 197.626 280.328 197.952 280.14C197.443 280.325 197.012 280.393 196.638 280.247C196.264 280.101 195.967 279.838 195.814 279.383C195.586 278.863 195.626 278.369 195.892 277.89C196.159 277.41 196.682 276.999 197.548 276.68C197.754 276.598 197.905 276.547 198.099 276.507C198.499 276.385 198.759 276.271 198.857 276.251L199.885 275.838L200.008 276.238L199.368 276.571L201.244 281.39ZM197.682 277.038C197.162 277.266 196.824 277.497 196.647 277.816C196.469 278.136 196.517 278.47 196.64 278.87C196.805 279.282 197.016 279.522 197.304 279.645C197.593 279.768 197.97 279.732 198.436 279.535C198.956 279.307 199.302 279.216 199.464 279.122L198.579 276.773C198.396 276.77 198.136 276.884 197.682 277.038ZM199.152 279.773L198.741 279.938C198.384 280.072 198.143 280.283 198.02 280.572C197.897 280.86 197.902 281.183 198.079 281.551C198.213 281.909 198.424 282.149 198.669 282.261C198.915 282.372 199.292 282.336 199.758 282.139C199.964 282.056 200.127 281.962 200.332 281.88L200.495 281.786L199.661 279.588C199.552 279.651 199.401 279.702 199.152 279.773Z" fill="#F9B01F"/>
<path d="M194.557 284.418L193.691 284.737L189.9 279.865L189.372 279.953L189.249 279.553L191.37 278.836L191.492 279.236L190.863 279.526L191.63 280.604L193.957 279.804L193.935 278.513L193.212 278.641L193.09 278.241L195.005 277.606L195.127 278.006L194.65 278.245L194.557 284.418ZM193.661 283.306L194.092 283.926L194.03 283.129L193.959 280.31L191.936 281.007L193.661 283.306Z" fill="#F9B01F"/>
<path d="M187.969 280.22C188.483 280.357 188.877 280.601 189.225 281.015C189.573 281.43 189.855 281.919 190.006 282.556C190.168 283.15 190.201 283.71 190.095 284.278C189.988 284.847 189.734 285.283 189.362 285.643C188.99 286.002 188.544 286.296 187.993 286.47C187.593 286.592 187.064 286.68 186.461 286.702L186.181 286.719L185.84 285.25L186.392 285.077L186.913 286.043C186.999 286.066 187.17 286.112 187.353 286.115C187.536 286.118 187.785 286.047 188.076 285.987C188.422 285.896 188.705 285.696 188.914 285.431C189.123 285.166 189.269 284.792 189.286 284.383C189.304 283.975 189.259 283.458 189.117 282.96C188.974 282.463 188.778 281.997 188.504 281.649C188.23 281.3 187.945 280.994 187.614 280.859C187.283 280.724 186.886 280.664 186.486 280.786C186.194 280.846 185.977 280.971 185.868 281.034C185.76 281.097 185.628 281.245 185.551 281.362L185.45 282.253L184.921 282.341L184.78 281.156C184.877 281.136 185.04 281.042 185.257 280.916C185.432 280.779 185.594 280.685 185.8 280.603C185.963 280.509 186.212 280.438 186.46 280.366C186.938 280.127 187.455 280.082 187.969 280.22Z" fill="#F9B01F"/>
<path d="M181.619 286.782C181.45 287.242 181.196 287.678 180.89 287.964C180.529 288.28 180.149 288.5 179.718 288.568C179.178 288.699 178.684 288.658 178.267 288.5C177.85 288.343 177.467 288.057 177.162 287.654C176.857 287.25 176.618 286.773 176.51 286.147C176.371 285.467 176.349 284.865 176.444 284.339C176.55 283.771 176.805 283.334 177.134 282.963C177.463 282.592 177.886 282.384 178.383 282.242C178.923 282.111 179.428 282.109 179.888 282.278C180.348 282.447 180.687 282.722 181.004 283.082C181.309 283.485 181.549 283.963 181.656 284.588L182.973 284.298L182.422 281.901L181.711 281.986L181.631 281.597L183.889 281.055L183.968 281.443L183.308 281.679L184.513 286.777L185.17 286.723L185.25 287.112L183.047 287.623L182.967 287.235L183.627 286.999L183.116 284.796L181.787 285.128C181.798 285.774 181.746 286.311 181.619 286.782ZM180.688 287.175C180.88 286.63 180.881 285.941 180.67 285.013C180.468 284.224 180.178 283.595 179.776 283.212C179.373 282.829 178.914 282.66 178.331 282.779C177.791 282.91 177.473 283.238 177.293 283.74C177.112 284.243 177.143 284.986 177.353 285.914C177.555 286.703 177.802 287.32 178.205 287.703C178.596 288.129 179.067 288.256 179.564 288.113C180.135 288.037 180.496 287.72 180.688 287.175Z" fill="#F9B01F"/>
<path d="M172.031 286.416C171.777 286.165 171.406 285.836 171.015 285.41C170.73 285.104 170.561 284.875 170.413 284.743C170.265 284.612 170.147 284.534 170.062 284.511L169.75 284.474L169.671 284.085L170.685 283.898C170.825 283.89 170.985 283.978 171.165 284.164C171.345 284.35 171.63 284.656 171.935 285.059C172.314 285.528 172.6 285.834 172.854 286.086C173.065 286.326 173.267 286.426 173.462 286.387L173.99 286.299L173.567 283.936L172.825 283.966L172.745 283.578L175.011 283.175L175.079 283.606L174.43 283.8L175.344 288.957L176.032 288.958L176.1 289.389L173.889 289.761L173.844 289.243L174.504 289.007L174.093 286.602L173.37 286.729L172.098 289.418L172.798 289.376L172.866 289.808L170.838 290.182L170.77 289.751L171.418 289.558L172.798 286.806C172.573 286.791 172.296 286.625 172.031 286.416Z" fill="#F9B01F"/>
<path d="M168.265 284.535C168.714 284.747 169.042 285.064 169.281 285.542C169.532 285.976 169.706 286.528 169.813 287.153C169.921 287.779 169.858 288.359 169.666 288.904C169.485 289.407 169.187 289.832 168.827 290.149C168.424 290.454 168.001 290.662 167.43 290.738C166.567 290.874 165.839 290.679 165.331 290.176C164.823 289.673 164.458 288.978 164.356 287.987C164.26 287.318 164.324 286.738 164.504 286.236C164.696 285.691 164.982 285.308 165.354 284.949C165.757 284.643 166.223 284.447 166.752 284.359C167.323 284.283 167.817 284.323 168.265 284.535ZM168.614 289.403C168.849 288.869 168.935 288.204 168.822 287.255C168.729 286.404 168.481 285.786 168.102 285.318C167.722 284.849 167.263 284.68 166.734 284.768C166.206 284.855 165.814 285.118 165.579 285.652C165.344 286.185 165.246 286.894 165.371 287.799C165.464 288.651 165.712 289.268 166.103 289.694C166.451 290.109 166.899 290.321 167.47 290.244C167.976 290.242 168.379 289.937 168.614 289.403Z" fill="#F9B01F"/>
<path d="M163.139 290.645L163.816 290.688L163.841 291.108L162.71 291.218C162.527 291.215 162.279 291.286 161.999 291.303C161.707 291.363 161.524 291.36 161.427 291.38C160.673 291.453 160.093 291.389 159.742 291.158C159.391 290.926 159.203 290.6 159.147 290.126C159.11 289.749 159.213 289.363 159.379 289.086C159.545 288.809 159.882 288.578 160.283 288.456C159.765 288.501 159.326 288.429 158.975 288.197C158.624 287.966 158.447 287.597 158.422 287.177C158.388 286.617 158.514 286.146 158.898 285.743C159.281 285.341 159.898 285.093 160.835 285.023C161.029 284.983 161.212 284.986 161.438 285.001C161.858 284.976 162.138 284.959 162.223 284.982L163.355 284.872L163.38 285.292L162.7 285.431L163.139 290.645ZM160.892 285.497C160.332 285.531 159.92 285.696 159.711 285.962C159.46 286.215 159.368 286.558 159.436 286.99C159.461 287.409 159.606 287.724 159.84 287.878C160.075 288.033 160.46 288.136 160.934 288.08C161.494 288.046 161.871 288.009 162.023 287.958L161.817 285.47C161.646 285.424 161.366 285.441 160.892 285.497ZM161.594 288.532L161.119 288.588C160.742 288.625 160.428 288.77 160.273 289.004C160.119 289.238 160.027 289.581 160.064 289.958C160.1 290.335 160.203 290.638 160.437 290.793C160.671 290.947 161.014 291.039 161.488 290.983C161.682 290.943 161.908 290.957 162.114 290.875L162.308 290.835L162.111 288.487C161.971 288.495 161.831 288.503 161.594 288.532Z" fill="#F9B01F"/>
<path d="M149.91 291.874L149.884 291.454L150.607 291.327L150.448 286.096L149.642 286.018L149.617 285.598L151.974 285.541L151.999 285.961L151.288 286.046L151.436 291.319L154.115 291.257L153.967 285.983L153.204 285.917L153.179 285.497L155.536 285.44L155.561 285.859L154.893 285.956L155.052 291.186L155.76 291.284L155.785 291.704L149.91 291.874Z" fill="#F9B01F"/>
<path d="M147.922 285.925C148.305 286.211 148.622 286.571 148.807 287.08C149.003 287.546 149.08 288.117 149.09 288.763C149.058 289.397 148.952 289.965 148.685 290.445C148.419 290.924 148.09 291.295 147.656 291.546C147.221 291.797 146.724 291.939 146.219 291.941C145.347 291.937 144.696 291.625 144.243 291.091C143.801 290.513 143.587 289.767 143.583 288.756C143.572 288.11 143.733 287.511 143.999 287.031C144.265 286.552 144.606 286.138 145.04 285.887C145.475 285.636 145.972 285.494 146.52 285.503C147.069 285.512 147.54 285.639 147.922 285.925ZM147.582 290.792C147.891 290.324 148.075 289.638 148.09 288.724C148.083 287.896 147.944 287.216 147.662 286.727C147.379 286.238 146.943 285.984 146.394 285.974C145.846 285.965 145.411 286.216 145.102 286.684C144.793 287.152 144.598 287.88 144.583 288.794C144.579 289.666 144.687 290.291 145.012 290.792C145.294 291.28 145.731 291.535 146.279 291.544C146.807 291.456 147.231 291.248 147.582 290.792Z" fill="#F9B01F"/>
<path d="M140.933 287.679C141.097 286.896 141.289 286.351 141.575 285.968C141.718 285.777 141.85 285.629 142.013 285.535C142.176 285.441 142.37 285.401 142.553 285.404C142.821 285.43 143.004 285.433 143.133 285.468L143.132 286.156C143.003 286.122 142.778 286.107 142.509 286.081C142.423 286.058 142.326 286.078 142.218 286.141C142.109 286.203 142.043 286.278 141.978 286.352C141.483 287 141.212 288.35 141.081 290.381L141.038 291.058L142.003 291.225L141.985 291.633L137.107 291.336L137.125 290.928L137.922 290.866L138.268 285.633L137.431 285.501L137.449 285.092L140.016 285.275L139.999 285.684L139.116 285.723L138.77 290.955L140.489 291.049L140.556 290.286C140.68 289.309 140.781 288.418 140.933 287.679Z" fill="#F9B01F"/>
<path d="M135.579 290.697L136.265 290.881L136.204 291.278L131.92 290.819L131.953 289.496L132.447 289.537L132.595 290.357L134.677 290.639L134.942 288.277L133.557 288.136L133.373 288.821L132.922 288.792L133.116 286.87L133.567 286.899L133.598 287.641L134.971 287.826L135.229 285.324L132.844 285.144L132.3 286.146L131.809 285.923L132.199 284.466L136.837 284.975L136.777 285.372L136.088 285.371L135.579 290.697Z" fill="#F9B01F"/>
<path d="M128.622 289.935L130.05 290.088L130.595 288.398L131.12 288.493L130.664 290.712L125.46 289.914L125.691 287.681L126.217 287.775L126.24 289.572L127.688 289.822L128.454 284.565L127.286 284.298L127.347 283.901L130.523 284.384L130.462 284.781L129.377 284.72L128.622 289.935Z" fill="#F9B01F"/>
<path d="M122.615 285.8L123.012 285.861C123.163 285.809 123.349 285.63 123.504 285.396C123.658 285.161 123.921 284.865 124.153 284.514C124.385 284.163 124.594 283.897 124.737 283.706C124.88 283.515 124.988 283.452 125.074 283.475L126.211 283.688L126.15 284.085L125.816 284.133C125.719 284.153 125.622 284.173 125.49 284.321C125.37 284.427 125.173 284.649 124.964 284.915C124.689 285.254 124.48 285.52 124.294 285.699C124.097 285.922 123.934 286.016 123.728 286.099C124.091 286.287 124.345 286.539 124.49 286.854C124.635 287.168 124.672 287.545 124.6 287.985C124.471 288.639 124.173 289.064 123.762 289.229C123.307 289.383 122.747 289.417 122.008 289.264C121.836 289.218 121.665 289.172 121.408 289.104C121.151 289.035 120.937 288.977 120.808 288.943L119.629 288.719L119.689 288.322L120.409 288.377L121.421 283.231L120.661 282.981L120.722 282.584L123.166 283.056L123.106 283.453L122.301 283.375L121.898 285.562L122.615 285.8ZM121.469 288.707C121.726 288.775 121.94 288.833 122.111 288.879C122.551 288.951 122.874 288.945 123.145 288.789C123.417 288.632 123.583 288.355 123.666 287.872C123.738 287.433 123.701 287.055 123.502 286.772C123.302 286.489 123.025 286.323 122.597 286.209C122.157 286.137 121.857 286.056 121.717 286.065L121.223 288.595L121.469 288.707Z" fill="#F9B01F"/>
<path d="M116.699 287.658L118.136 287.951L118.809 286.296L119.366 286.445L118.695 288.606L113.606 287.38L114.02 285.15L114.534 285.288L114.375 287.081L115.788 287.46L116.994 282.274L115.849 281.922L115.952 281.536L119.102 282.288L118.999 282.674L117.894 282.515L116.699 287.658Z" fill="#F9B01F"/>
<path d="M111.289 280.608C111.648 280.98 111.845 281.445 111.933 281.974C112.021 282.502 111.957 283.082 111.785 283.725C111.624 284.324 111.304 284.835 110.932 285.195C110.549 285.597 110.071 285.837 109.574 285.979C109.034 286.11 108.54 286.069 107.983 285.92C107.555 285.805 107.107 285.593 106.542 285.304L106.296 285.192L106.815 283.77L107.372 283.919L107.267 284.993C107.33 285.102 107.447 285.179 107.607 285.268C107.767 285.357 108.012 285.468 108.269 285.537C108.612 285.629 108.935 285.624 109.281 285.533C109.584 285.43 109.921 285.199 110.153 284.848C110.427 284.509 110.639 284.061 110.777 283.547C110.915 283.033 110.998 282.55 110.984 282.087C110.971 281.624 110.848 281.224 110.66 280.898C110.472 280.573 110.164 280.352 109.735 280.237C109.436 280.157 109.221 280.1 109.039 280.097C108.856 280.094 108.704 280.145 108.596 280.208L108.046 280.887L107.555 280.663L108.079 279.564C108.208 279.599 108.391 279.602 108.616 279.616C108.842 279.631 109.025 279.634 109.208 279.637C109.39 279.64 109.647 279.709 109.904 279.778C110.461 279.927 110.941 280.193 111.289 280.608Z" fill="#F9B01F"/>
<path d="M102.977 284.211L103.124 283.837L103.949 284.012L105.339 280.024L104.358 280.771L101.108 282.792L101.051 283.006L101.744 283.33L101.598 283.704L99.4169 282.936L99.5631 282.562L100.217 282.691L101.914 277.729L101.263 277.416L101.409 277.042L103.634 277.822L103.487 278.196L102.748 278.044L101.346 282.076L102.272 281.36L105.62 279.318L105.7 279.019L104.964 278.683L105.11 278.309L107.334 279.089L107.188 279.463L106.491 279.322L104.794 284.285L105.402 284.585L105.256 284.96L102.977 284.211Z" fill="#F9B01F"/>
<path d="M94.3723 281.033L95.1175 278.937L95.6628 279.129L95.2581 280.811L96.9454 281.539L98.9109 276.602L97.5662 275.967L97.7123 275.593L100.79 276.785L100.644 277.159L99.7446 276.918L97.8449 281.78L98.6442 282.224L98.498 282.598L94.3723 281.033Z" fill="#F9B01F"/>
<path d="M93.2283 279.992L93.7705 280.367L93.6244 280.741L91.5317 279.813L91.6778 279.439L92.3632 279.623L93.2797 277.573L90.5675 276.387L89.6509 278.437L90.2361 278.823L90.0899 279.197L88.0401 278.281L88.1862 277.906L88.8287 278.079L90.9425 273.274L90.3459 272.93L90.4921 272.556L92.5419 273.473L92.3958 273.847L91.7219 273.62L90.7052 275.873L93.4174 277.059L94.4342 274.806L93.7948 274.451L93.9409 274.077L96.0764 275.017L95.9303 275.391L95.2993 275.176L93.2283 279.992Z" fill="#F9B01F"/>
<path d="M85.2453 276.889L84.4345 276.488L85.2046 270.359L84.7793 270.061L84.9683 269.699L86.9523 270.689L86.7634 271.052L86.0895 270.826L85.8852 272.102L88.0719 273.193L88.97 272.24L88.342 271.842L88.531 271.48L90.3124 272.37L90.1234 272.733L89.6209 272.552L85.2453 276.889ZM85.3556 275.449L85.2033 276.189L85.7296 275.595L87.7001 273.553L85.8018 272.585L85.3556 275.449Z" fill="#F9B01F"/>
<path d="M81.9501 270.681C82.4335 270.076 82.8711 269.642 83.2627 269.38C83.48 269.254 83.6315 269.203 83.8257 269.163C84.0086 269.166 84.1799 269.212 84.3826 269.312C84.6281 269.424 84.7765 269.556 84.8935 269.633L84.6357 270.253C84.5186 270.175 84.3588 270.087 84.0819 269.921C84.0077 269.855 83.922 269.832 83.8249 269.852C83.7278 269.872 83.6306 269.891 83.522 269.954C82.8274 270.319 81.9806 271.423 80.9501 273.213L80.6066 273.81L81.4143 274.393L81.2254 274.756L76.9949 272.383L77.1839 272.02L77.9319 272.313L80.4939 267.72L79.7918 267.256L79.9808 266.893L82.2616 268.147L82.0726 268.51L81.2932 268.163L78.7427 272.714L80.2242 273.524L80.5907 272.841C80.9915 272.031 81.4666 271.286 81.9501 270.681Z" fill="#F9B01F"/>
<path d="M69.309 267.661L69.5408 267.309L70.2773 267.645L73.0734 263.206L72.4685 262.723L72.7002 262.372L74.7753 263.708L74.5435 264.059L73.8498 263.735L71.0537 268.174L71.6587 268.657L71.4269 269.008L69.309 267.661ZM75.0839 268.382C74.4988 267.995 74.1508 267.581 73.9971 267.126C73.8434 266.672 73.9268 266.189 74.2474 265.678C74.5794 265.125 75.0253 264.831 75.5539 264.743C76.0824 264.655 76.6393 264.804 77.2359 265.148C77.3101 265.214 77.3957 265.236 77.4699 265.302C77.5441 265.368 77.6183 265.434 77.704 265.457C77.9694 265.666 78.2034 265.82 78.3946 265.963L79.3736 266.593L79.1419 266.944L78.4909 266.632L75.6948 271.07L76.2142 271.531L75.9824 271.882L73.9387 270.6L74.1705 270.249L74.9499 270.595L75.9888 268.945L75.0839 268.382ZM77.492 265.905C77.4179 265.839 77.3008 265.762 77.0981 265.662C76.7042 265.418 76.3188 265.315 75.973 265.406C75.6273 265.497 75.3327 265.74 75.0352 266.165C74.7919 266.559 74.7001 266.901 74.7911 267.247C74.8821 267.593 75.1245 267.887 75.5184 268.131L76.2634 268.606L77.7773 266.211C77.6833 266.048 77.6091 265.982 77.492 265.905Z" fill="#F9B01F"/>
<path d="M66.4068 264.955L66.8718 265.447L66.64 265.798L64.8021 264.433L65.0339 264.082L65.6733 264.437L67.038 262.599L64.6578 260.859L63.2931 262.697L63.7581 263.189L63.5263 263.54L61.7312 262.187L61.963 261.836L62.5711 262.137L65.6754 257.918L65.1989 257.469L65.4307 257.118L67.2686 258.483L67.0368 258.834L66.4402 258.491L64.9982 260.446L67.3784 262.185L68.8205 260.23L68.2698 259.715L68.5016 259.364L70.3823 260.741L70.1506 261.092L69.554 260.748L66.4068 264.955Z" fill="#F9B01F"/>
<path d="M59.2684 260.242L58.5579 259.638L60.6244 253.81L60.2764 253.396L60.5396 253.099L62.2803 254.484L62.0057 254.823L61.4206 254.437L60.9593 255.645L62.8798 257.215L63.989 256.502L63.4811 255.999L63.7443 255.702L65.2938 256.944L65.0307 257.241L64.5511 256.974L59.2684 260.242ZM59.7214 258.894L59.4406 259.599L60.0724 259.126L62.4223 257.552L60.7672 256.19L59.7214 258.894Z" fill="#F9B01F"/>
<path d="M54.2635 255.274L54.8539 255.983L54.5908 256.28L52.9387 254.735L54.634 251.15L55.1665 250.19L54.2631 250.821L50.8415 252.796L49.2208 251.306L49.484 251.009L50.2488 251.581L53.3218 247.309L52.8369 246.72L53.1001 246.423L54.8577 248.088L54.5945 248.384L53.978 247.944L51.7007 250.96L50.7108 252.256L51.797 251.629L55.8473 249.363L56.2496 249.746L54.5168 253.643L53.7923 255.148L55.0048 254.049L57.8443 251.505L57.2737 250.893L57.5369 250.596L59.1576 252.086L58.8944 252.383L58.3208 251.954L54.2635 255.274Z" fill="#F9B01F"/>
<path d="M46.9043 248.987L46.2596 248.309L49.0198 242.805L48.7261 242.359L49.0321 242.074L50.5755 243.681L50.2696 243.966L49.6959 243.537L49.0633 244.699L50.7979 246.449L51.9698 245.845L51.5277 245.267L51.8337 244.982L53.2402 246.415L52.9342 246.7L52.509 246.402L46.9043 248.987ZM47.5286 247.685L47.1622 248.367L47.8567 248.002L50.4062 246.711L48.8942 245.158L47.5286 247.685Z" fill="#F9B01F"/>
<path d="M44.1067 245.207L44.4631 245.762L44.1571 246.047L43.4183 245.206C43.2699 245.075 43.133 244.9 42.9846 244.769C42.7621 244.571 42.551 244.331 42.3712 244.145C41.8435 243.545 41.5728 243.013 41.559 242.55C41.5453 242.087 41.7886 241.694 42.2261 241.26C42.575 240.986 42.9123 240.755 43.2894 240.718C43.678 240.639 44.075 240.699 44.449 240.846C44.823 240.992 45.1626 241.266 45.4792 241.627C45.5848 241.747 45.6903 241.867 45.7959 241.987C45.9014 242.107 45.9641 242.216 46.007 242.227L47.3938 240.992L46.678 240.066L46.9839 239.78L48.8211 241.833L48.5151 242.119L47.9958 241.658L44.1067 245.207ZM45.1618 241.955C44.8765 241.649 44.5139 241.46 44.1598 241.411C43.8057 241.362 43.3398 241.558 42.9023 241.992C42.542 242.309 42.3645 242.628 42.3698 242.951C42.3751 243.274 42.5518 243.643 42.8684 244.003C42.974 244.123 43.1223 244.255 43.2707 244.386C43.3449 244.452 43.4191 244.518 43.4505 244.572L45.678 242.598C45.5725 242.478 45.4042 242.249 45.1618 241.955Z" fill="#F9B01F"/>
<path d="M44.2427 237.163C44.3306 237.692 44.2472 238.174 43.981 238.654C43.7576 239.145 43.3629 239.59 42.8825 240.012C42.4021 240.435 41.882 240.662 41.3534 240.75C40.8248 240.838 40.2764 240.829 39.7854 240.606C39.2828 240.425 38.8576 240.128 38.4782 239.659C38.2044 239.31 37.9108 238.864 37.64 238.332L37.5261 238.072L38.7354 237.157L39.0834 237.571L38.4026 238.399C38.4225 238.496 38.4309 238.636 38.5135 238.842C38.6075 239.005 38.733 239.222 38.9012 239.451C39.1437 239.745 39.4206 239.911 39.7632 240.003C40.1059 240.095 40.483 240.058 40.8831 239.936C41.2831 239.813 41.7176 239.563 42.1322 239.215C42.5468 238.867 42.8643 238.538 43.1075 238.145C43.3508 237.751 43.4969 237.377 43.5031 237.011C43.5092 236.645 43.3754 236.288 43.1444 235.951C42.9762 235.722 42.785 235.579 42.6366 235.447C42.4882 235.316 42.3597 235.281 42.2197 235.29L41.3653 235.566L41.0716 235.12L42.1035 234.524C42.1777 234.59 42.3261 234.722 42.5173 234.865C42.7085 235.008 42.8684 235.096 43.0168 235.228C43.1651 235.36 43.302 235.534 43.5246 235.731C43.9583 236.169 44.1976 236.646 44.2427 237.163Z" fill="#F9B01F"/>
<path d="M30.5068 228.8L30.8441 228.569L31.3604 229.213L34.8853 226.852L33.6484 226.842L29.8469 226.466L29.6725 226.603L29.9944 227.286L29.6571 227.517L28.3883 225.57L28.7256 225.339L29.1907 225.831L33.5531 222.914L33.2197 222.274L33.557 222.043L34.8687 224.001L34.5313 224.232L34.0464 223.643L30.4673 226.035L31.6184 226.022L35.5056 226.421L35.7772 226.264L35.4124 225.57L35.7497 225.339L37.0614 227.297L36.724 227.528L36.2705 226.993L31.908 229.91L32.1986 230.539L31.8613 230.77L30.5068 228.8Z" fill="#F9B01F"/>
<path d="M27.5219 224.006C27.3422 223.821 27.2053 223.646 27.0569 223.515C26.9085 223.383 26.8573 223.232 26.7517 223.111C26.4068 222.514 26.2218 222.005 26.208 221.543C26.1943 221.08 26.4146 220.772 26.8491 220.521C27.2293 220.301 27.6179 220.222 28.0034 220.325C28.3889 220.428 28.6971 220.649 28.9824 220.955C28.7315 220.52 28.6207 220.077 28.7239 219.692C28.8272 219.306 29.0476 218.998 29.3849 218.767C29.8852 218.442 30.4137 218.354 30.8734 218.523C31.3331 218.692 31.7783 219.087 32.2287 219.804C32.3855 220.076 32.5423 220.348 32.6134 220.596C32.6845 220.845 32.7671 221.051 32.8183 221.202C32.8696 221.353 32.8894 221.451 32.878 221.493L31.5661 222.106L31.3466 221.726L32.1445 220.975C32.1392 220.653 32.0053 220.296 31.743 219.904C31.5549 219.578 31.2895 219.369 31.021 219.343C30.7525 219.317 30.3639 219.397 29.9838 219.616C29.7007 219.816 29.5034 220.038 29.3802 220.327C29.2998 220.626 29.3794 221.015 29.6417 221.407L29.9667 221.907L29.5751 222.169L29.3242 221.735C29.1988 221.518 29.0504 221.386 28.8592 221.243C28.668 221.1 28.4538 221.043 28.2282 221.028C28.0025 221.013 27.7539 221.085 27.4824 221.241C27.1565 221.429 27.002 221.663 26.9331 221.92C26.9071 222.189 26.9667 222.48 27.1549 222.806C27.2803 223.024 27.4172 223.198 27.5771 223.287C27.7254 223.418 27.8539 223.453 27.9511 223.433L28.7084 223.177L29.002 223.623L27.9357 224.347C27.85 224.324 27.7445 224.204 27.5219 224.006Z" fill="#F9B01F"/>
<path d="M24.2105 217.518L24.4467 218.178L24.078 218.355L23.5251 217.335C23.431 217.172 23.3056 216.954 23.1374 216.726C22.9691 216.497 22.875 216.334 22.8123 216.225C22.4475 215.531 22.3168 214.991 22.3344 214.582C22.3949 214.185 22.6152 213.877 23.0497 213.626C23.4184 213.45 23.7641 213.359 24.1068 213.451C24.4609 213.499 24.7691 213.72 25.0116 214.014C24.7722 213.537 24.6614 213.094 24.7647 212.709C24.8679 212.323 25.0883 212.015 25.5113 211.807C26.0001 211.525 26.5171 211.48 27.0082 211.703C27.5107 211.884 27.9757 212.375 28.4346 213.233C28.5287 213.396 28.6112 213.602 28.7053 213.764C28.882 214.133 28.9959 214.393 29.0701 214.459L29.5917 215.425L29.223 215.602L28.8238 215.036L24.2105 217.518ZM25.5615 215.218L25.3534 214.795C25.1653 214.469 24.9542 214.228 24.6544 214.148C24.3545 214.068 24.0631 214.127 23.6944 214.304C23.3686 214.492 23.1284 214.703 23.0595 214.96C22.9906 215.217 23.0816 215.563 23.2896 215.986C23.3837 216.149 23.5091 216.366 23.6032 216.529L23.6973 216.692L25.781 215.598C25.781 215.598 25.6869 215.435 25.5615 215.218ZM28.1087 213.421C27.8265 212.932 27.5412 212.626 27.21 212.492C26.8789 212.357 26.5446 212.405 26.1644 212.625C25.7843 212.844 25.5441 213.055 25.5065 213.366C25.469 213.678 25.5172 214.012 25.768 214.447C26.0502 214.935 26.1956 215.25 26.2896 215.413L28.4934 214.213C28.4307 214.104 28.3167 213.844 28.1087 213.421Z" fill="#F9B01F"/>
<path d="M20.3792 211.258L19.9632 210.412L24.296 206.064L24.1538 205.567L24.5224 205.39L25.4998 207.396L25.1311 207.573L24.7434 206.964L23.7711 207.851L24.8311 210.064L26.1253 209.859L25.9005 209.156L26.2692 208.98L27.1211 210.769L26.7524 210.946L26.4587 210.5L20.3792 211.258ZM21.3546 210.188L20.7541 210.716L21.5312 210.557L24.3454 210.163L23.3993 208.211L21.3546 210.188Z" fill="#F9B01F"/>
<path d="M23.7038 204.161C23.6204 204.643 23.397 205.134 23.0681 205.505C22.7391 205.876 22.2274 206.244 21.6529 206.503C21.0784 206.763 20.5071 206.839 19.9701 206.787C19.4331 206.735 18.9306 206.554 18.5054 206.257C18.0801 205.959 17.7436 205.502 17.5157 204.982C17.3505 204.57 17.2083 204.073 17.089 203.49L17.0294 203.199L18.4582 202.663L18.6861 203.184L17.7827 203.814C17.7598 203.899 17.7567 204.082 17.7965 204.277C17.8362 204.471 17.9073 204.719 18.0213 204.979C18.1666 205.294 18.3662 205.577 18.6859 205.754C19.0056 205.932 19.3483 206.024 19.7682 205.998C20.1882 205.973 20.6739 205.874 21.194 205.646C21.6599 205.449 22.0944 205.199 22.4547 204.882C22.815 204.565 23.0353 204.257 23.1386 203.872C23.2847 203.498 23.248 203.12 23.0714 202.752C22.9574 202.492 22.832 202.274 22.7264 202.154C22.6209 202.034 22.5153 201.914 22.344 201.868L21.43 201.853L21.2877 201.356L22.4649 201.074C22.5276 201.183 22.6217 201.346 22.7586 201.52C22.8955 201.695 23.0439 201.826 23.138 201.989C23.232 202.152 23.3575 202.369 23.4714 202.629C23.6993 203.15 23.7872 203.678 23.7038 204.161Z" fill="#F9B01F"/>
<path d="M16.4066 198.67C15.9239 198.587 15.4757 198.375 15.1361 198.1C14.7965 197.826 14.5342 197.434 14.3805 196.98C14.1954 196.471 14.1389 195.997 14.2651 195.526C14.3914 195.054 14.5918 194.649 14.9521 194.332C15.3239 193.973 15.7583 193.722 16.3213 193.506C16.9815 193.269 17.5529 193.193 18.1013 193.202C18.6382 193.254 19.1408 193.435 19.5232 193.721C19.9056 194.007 20.2108 194.41 20.4073 194.876C20.5924 195.385 20.6375 195.902 20.554 196.384C20.4706 196.867 20.2274 197.261 19.8556 197.62C19.4838 197.98 19.0379 198.274 18.4749 198.49L18.9589 199.767L21.2537 198.913L21.0832 198.179L21.4833 198.057L22.2747 200.243L21.8747 200.365L21.5412 199.725L16.6488 201.536L16.7879 202.216L16.3879 202.338L15.5849 200.195L15.985 200.072L16.3184 200.713L18.4617 199.91L17.9777 198.632C17.4376 198.763 16.8777 198.797 16.4066 198.67ZM15.8934 197.844C16.4502 197.993 17.1616 197.909 18.039 197.547C18.8077 197.248 19.3623 196.891 19.7142 196.435C20.0661 195.978 20.1495 195.496 19.9644 194.987C19.7794 194.478 19.3969 194.192 18.8829 194.054C18.3689 193.917 17.6461 194.044 16.7802 194.363C16.0115 194.662 15.4569 195.019 15.1165 195.432C14.7646 195.889 14.6926 196.329 14.8777 196.837C15.0084 197.377 15.3794 197.706 15.8934 197.844Z" fill="#F9B01F"/>
<path d="M15.598 189.18C15.8183 188.872 16.1044 188.49 16.4991 188.044C16.7623 187.748 16.9597 187.525 17.1027 187.334C17.2343 187.185 17.2687 187.057 17.2917 186.971L17.2863 186.649L17.6864 186.526L18.0137 187.532C18.0764 187.641 17.9762 187.843 17.8331 188.035C17.6786 188.269 17.4154 188.565 17.0437 188.925C16.6489 189.37 16.3315 189.698 16.1226 189.963C15.9138 190.229 15.8564 190.443 15.9076 190.595L16.0499 191.092L18.3531 190.378L18.2369 189.612L18.6369 189.489L19.3312 191.695L18.9312 191.818L18.6406 191.189L13.6342 192.74L13.7305 193.408L13.3304 193.531L12.6675 191.379L13.0675 191.257L13.3581 191.885L15.6613 191.171L15.4365 190.468L12.6011 189.571L12.7287 190.294L12.3287 190.416L11.7169 188.416L12.117 188.293L12.4191 188.879L15.3172 189.885C15.266 189.734 15.3891 189.446 15.598 189.18Z" fill="#F9B01F"/>
<path d="M16.9451 185.18C16.776 185.639 16.4899 186.022 16.0868 186.327C15.6836 186.632 15.152 186.903 14.5577 187.065C13.9205 187.216 13.3606 187.249 12.8351 187.154C12.3096 187.059 11.8729 186.805 11.5019 186.476C11.131 186.147 10.8801 185.712 10.7494 185.172C10.5162 184.329 10.6141 183.621 11.0548 183.005C11.4839 182.431 12.1471 182.012 13.0872 181.759C13.7244 181.608 14.3271 181.586 14.8526 181.681C15.3781 181.776 15.8577 182.042 16.2286 182.371C16.5996 182.7 16.8504 183.134 16.9812 183.674C17.1119 184.214 17.1142 184.72 16.9451 185.18ZM12.1422 186.142C12.6876 186.334 13.3874 186.292 14.2732 186.071C15.1047 185.88 15.7021 185.535 16.0853 185.133C16.4686 184.731 16.6063 184.217 16.4641 183.72C16.3333 183.179 15.9624 182.851 15.417 182.659C14.8717 182.466 14.129 182.497 13.2432 182.719C12.4117 182.909 11.8143 183.254 11.4311 183.656C11.0478 184.059 10.9216 184.53 11.0523 185.07C11.2802 185.59 11.6397 185.962 12.1422 186.142Z" fill="#F9B01F"/>
<path d="M10.252 180.861L10.294 181.561L9.90542 181.641L9.65539 180.518C9.61563 180.324 9.54453 180.075 9.47341 179.826C9.4023 179.578 9.3197 179.372 9.31129 179.232C9.15226 178.455 9.16149 177.906 9.30762 177.532C9.45375 177.158 9.79109 176.927 10.234 176.817C10.6226 176.737 10.9767 176.786 11.3079 176.921C11.6276 177.098 11.8815 177.35 12.0582 177.719C11.9274 177.179 11.9451 176.77 12.134 176.408C12.323 176.045 12.6603 175.814 13.0917 175.746C13.6318 175.615 14.1572 175.71 14.571 176.051C14.9963 176.348 15.3297 176.988 15.5086 177.863C15.5484 178.057 15.5882 178.251 15.5851 178.434C15.6531 178.865 15.7242 179.114 15.7441 179.211L16.0056 180.291L15.617 180.371L15.3807 179.711L10.252 180.861ZM12.1652 179.033L12.0543 178.59C11.9748 178.201 11.818 177.93 11.5411 177.764C11.3071 177.609 10.9529 177.56 10.5529 177.682C10.1643 177.762 9.89273 177.919 9.78104 178.164C9.66934 178.41 9.62035 178.764 9.71975 179.25C9.75951 179.444 9.79927 179.638 9.88186 179.844L9.9331 179.995L12.2217 179.507C12.2447 179.421 12.1934 179.27 12.1652 179.033ZM15.0658 177.974C14.935 177.434 14.7583 177.065 14.4501 176.844C14.1847 176.636 13.8306 176.587 13.3877 176.698C12.9563 176.766 12.6732 176.965 12.5615 177.211C12.407 177.445 12.3894 177.853 12.4888 178.339C12.6195 178.879 12.699 179.268 12.7503 179.419L15.1904 178.879C15.2248 178.751 15.1652 178.459 15.0658 177.974Z" fill="#F9B01F"/>
<path d="M7.33939 167.915L7.7708 167.847L7.99561 168.55L13.1725 167.734L13.1535 166.948L13.5849 166.88L13.9649 169.231L13.5334 169.299L13.3514 168.608L8.17453 169.424L8.60265 172.11L13.8224 171.305L13.8033 170.519L14.2348 170.451L14.5719 172.791L14.1405 172.859L13.947 172.211L8.77008 173.027L8.75778 173.758L8.32637 173.826L7.33939 167.915Z" fill="#F9B01F"/>
<path d="M13.0329 165.171C12.8324 165.577 12.4607 165.936 12.0262 166.187C11.5917 166.438 11.0402 166.611 10.3831 166.665C9.72606 166.718 9.14627 166.655 8.64375 166.474C8.14122 166.294 7.71596 165.996 7.4108 165.593C7.10564 165.19 6.9091 164.724 6.86401 164.207C6.77077 163.356 6.96588 162.627 7.46923 162.12C7.97258 161.612 8.69851 161.301 9.68983 161.2C10.3469 161.146 10.9267 161.21 11.4292 161.39C11.9317 161.571 12.357 161.868 12.705 162.283C13.0101 162.686 13.2067 163.152 13.2517 163.669C13.3167 164.283 13.2333 164.766 13.0329 165.171ZM8.14512 165.422C8.66752 165.7 9.34446 165.744 10.2815 165.674C11.1328 165.58 11.7386 165.375 12.2075 164.996C12.665 164.659 12.8769 164.211 12.8005 163.64C12.7554 163.123 12.4502 162.72 11.9278 162.442C11.4054 162.164 10.6856 162.109 9.79147 162.191C8.94012 162.284 8.29148 162.478 7.86539 162.868C7.40795 163.205 7.23886 163.665 7.3153 164.236C7.34891 164.796 7.65407 165.199 8.14512 165.422Z" fill="#F9B01F"/>
<path d="M10.3703 158.49C11.1329 158.556 11.744 158.674 12.1494 158.874C12.3521 158.975 12.5004 159.106 12.606 159.226C12.7001 159.389 12.7513 159.541 12.7911 159.735C12.8079 160.015 12.8048 160.198 12.7703 160.326L12.1018 160.423C12.0934 160.283 12.0965 160.1 12.0912 159.777C12.0713 159.68 12.0514 159.583 11.9772 159.517C11.903 159.451 11.8288 159.385 11.7118 159.308C11.0296 158.942 9.64432 158.8 7.5875 158.938L6.93044 158.991L6.90359 159.948L6.48366 159.973L6.17812 155.117L6.59805 155.092L6.75709 155.869L11.9906 155.527L12.0258 154.71L12.4457 154.684L12.6283 157.258L12.2084 157.284L12.0723 156.421L6.85033 156.72L6.93968 158.443L7.6824 158.412C8.73643 158.419 9.60765 158.423 10.3703 158.49Z" fill="#F9B01F"/>
<path d="M6.68814 153.555L6.59016 154.263L6.17023 154.288L6.0811 149.995L7.40669 149.845L7.42042 150.308L6.62031 150.553L6.60636 152.661L8.96303 152.604L8.92185 151.215L8.21356 151.117L8.19982 150.654L10.1366 150.623L10.1503 151.085L9.42744 151.213L9.41432 152.633L11.911 152.567L11.7681 150.187L10.6889 149.761L10.8266 149.247L12.286 149.454L12.369 154.113L11.9491 154.138L11.8642 153.427L6.68814 153.555Z" fill="#F9B01F"/>
<path d="M6.59088 146.551L6.62058 147.982L8.36835 148.312L8.35914 148.861L6.11417 148.673L6.2347 143.425L8.49423 143.388L8.485 143.936L6.71652 144.197L6.64909 145.648L11.9506 145.737L12.0463 144.523L12.4548 144.541L12.3796 147.735L11.9711 147.717L11.9039 146.597L6.59088 146.551Z" fill="#F9B01F"/>
<path d="M9.93816 140.056L9.92053 140.465C10.0146 140.628 10.163 140.759 10.4399 140.925C10.6739 141.08 10.9936 141.257 11.399 141.458C11.8044 141.658 12.0813 141.824 12.284 141.924C12.4866 142.024 12.5922 142.145 12.5692 142.23L12.4965 143.358L12.088 143.341L12.0399 143.007C12.02 142.909 11.9458 142.844 11.8402 142.724C11.6804 142.635 11.4892 142.492 11.1809 142.271C10.8184 142.082 10.553 141.874 10.3189 141.719C10.0849 141.565 9.94799 141.39 9.85392 141.227C9.70779 141.601 9.49895 141.867 9.16161 142.098C8.83574 142.286 8.49001 142.377 8.03872 142.348C7.36179 142.304 6.91357 142.092 6.66272 141.658C6.41187 141.223 6.33543 140.652 6.39056 139.932C6.39364 139.749 6.43954 139.578 6.46557 139.309C6.4916 139.041 6.54899 138.827 6.54059 138.687L6.63631 137.473L7.04476 137.49L7.08677 138.19L12.3194 138.536L12.4403 137.743L12.8488 137.76L12.6887 140.242L12.2803 140.225L12.2727 139.396L10.0163 139.251L9.93816 140.056ZM6.8855 139.284C6.81664 139.541 6.80209 139.767 6.79902 139.95C6.76991 140.401 6.81808 140.735 7.02917 140.975C7.24026 141.215 7.52861 141.339 8.02273 141.379C8.47402 141.408 8.81977 141.317 9.1028 141.118C9.38583 140.918 9.47765 140.575 9.54959 140.136C9.57869 139.684 9.60472 139.416 9.56496 139.222L6.9972 139.039L6.8855 139.284Z" fill="#F9B01F"/>
<path d="M7.31095 134.44L7.20068 135.88L8.91402 136.339L8.86197 136.876L6.62007 136.505L7.19189 131.286L9.44833 131.432L9.39628 131.969L7.63089 132.047L7.42347 133.506L12.6844 134.09L12.9086 132.91L13.3056 132.971L12.9504 136.181L12.5534 136.12L12.5719 135.024L7.31095 134.44Z" fill="#F9B01F"/>
<path d="M13.6773 128.158C13.3484 128.529 12.9024 128.822 12.4052 128.965C11.908 129.107 11.3053 129.129 10.6941 129.011C10.083 128.893 9.53763 128.701 9.12385 128.361C8.71007 128.02 8.36208 127.606 8.17702 127.097C7.99196 126.588 7.94687 126.071 8.05324 125.503C8.12518 125.063 8.2629 124.549 8.49778 124.015L8.60948 123.77L10.0888 124.074L9.9824 124.643L8.87406 124.667C8.80827 124.741 8.731 124.858 8.63078 125.061C8.54204 125.221 8.47317 125.478 8.44714 125.746C8.39816 126.1 8.44633 126.435 8.59163 126.749C8.73694 127.064 8.99085 127.315 9.38476 127.558C9.73583 127.79 10.207 127.916 10.7753 128.023C11.3008 128.118 11.7635 128.104 12.2378 128.047C12.6692 127.979 13.0807 127.814 13.3752 127.572C13.6698 127.329 13.8472 127.01 13.9192 126.57C13.9567 126.259 13.9712 126.033 13.9628 125.893C13.9544 125.753 13.9032 125.601 13.8091 125.439L13.0642 124.963L13.2019 124.449L14.3354 124.845C14.301 124.974 14.3522 125.125 14.3805 125.362C14.4203 125.556 14.4057 125.782 14.4455 125.976C14.4852 126.171 14.4278 126.385 14.3903 126.696C14.2411 127.253 14.0177 127.744 13.6773 128.158Z" fill="#F9B01F"/>
<path d="M9.065 120.357L9.46197 120.417L9.38389 121.223L13.5105 122.099L12.6431 121.224L10.2301 118.236L10.0159 118.179L9.77801 118.895L9.38103 118.835L9.84934 116.573L10.2463 116.633L10.2027 117.31L15.3259 118.408L15.5523 117.734L15.9378 117.837L15.458 120.142L15.0725 120.038L15.1392 119.276L10.9269 118.377L11.7629 119.198L14.2073 122.24L14.5071 122.32L14.7565 121.561L15.1535 121.621L14.6737 123.926L14.2767 123.865L14.3319 123.145L9.20865 122.048L8.99367 122.679L8.59668 122.619L9.065 120.357Z" fill="#F9B01F"/>
<path d="M11.1289 111.453L13.2935 111.941L13.1443 112.498L11.4478 112.319L10.9229 114.106L16.0859 115.398L16.5503 114.007L16.9358 114.111L16.1293 117.292L15.7438 117.188L15.8992 116.266L10.8219 114.997L10.5067 115.831L10.1212 115.728L11.1289 111.453Z" fill="#F9B01F"/>
<path d="M12.0219 110.177L11.7212 110.785L11.3357 110.682L12.0182 108.478L12.4037 108.581L12.3057 109.289L14.4673 109.96L15.3219 107.113L13.1604 106.442L12.8597 107.05L12.4742 106.947L13.1452 104.785L13.5307 104.889L13.4442 105.554L18.4527 107.08L18.7105 106.46L19.096 106.564L18.425 108.725L18.0395 108.622L18.1803 107.925L15.8474 107.208L14.9928 110.055L17.3257 110.772L17.595 110.11L17.9805 110.213L17.298 112.417L16.9125 112.314L17.0418 111.66L12.0219 110.177Z" fill="#F9B01F"/>
<path d="M14.0656 101.864L14.3922 100.988L20.5451 100.984L20.8113 100.504L21.1853 100.65L20.4402 102.746L20.0661 102.6L20.2069 101.903L18.8844 101.87L18.0819 104.18L19.1121 104.961L19.4242 104.31L19.7983 104.456L19.1533 106.349L18.7793 106.203L18.8741 105.678L14.0656 101.864ZM15.5395 101.846L14.7769 101.779L15.4362 102.232L17.6879 103.937L18.4102 101.927L15.5395 101.846Z" fill="#F9B01F"/>
<path d="M19.8773 97.8207C20.5481 98.23 21.0475 98.5934 21.3213 98.9422C21.4582 99.1166 21.5408 99.3224 21.5921 99.4738C21.6318 99.6681 21.5859 99.8395 21.54 100.011C21.4283 100.256 21.3396 100.416 21.2623 100.533L20.6313 100.318C20.7085 100.201 20.7659 99.987 20.8776 99.7415C20.9006 99.6558 20.935 99.5273 20.9037 99.473C20.8838 99.3759 20.8211 99.2672 20.7584 99.1586C20.2849 98.5268 19.1032 97.797 17.1903 97.0548L16.5707 96.797L16.1155 97.6391L15.7415 97.493L17.5494 92.9734L17.9234 93.1195L17.7168 93.8905L22.5676 95.833L22.9456 95.1079L23.3196 95.254L22.3541 97.658L21.98 97.5119L22.2096 96.6552L17.3588 94.7127L16.7085 96.283L17.4137 96.5638C18.3843 97.0534 19.2065 97.4115 19.8773 97.8207Z" fill="#F9B01F"/>
<path d="M21.2345 90.701C21.5351 90.093 21.8756 89.6792 22.3414 89.4826C22.8072 89.2861 23.2585 89.3152 23.7924 89.5501C24.3576 89.8393 24.7599 90.2225 24.8907 90.7625C25.0329 91.2597 24.9694 91.8395 24.6687 92.4476C24.6458 92.5332 24.58 92.6074 24.557 92.6931C24.4912 92.7673 24.4683 92.853 24.391 92.97C24.225 93.2469 24.1133 93.4924 24.0016 93.7379L23.5434 94.7628L23.1808 94.5739L23.4073 93.9L18.6368 91.6577L18.2505 92.2428L17.8879 92.0538L18.8817 89.887L19.2443 90.0759L18.9834 90.8783L20.7334 91.7145L21.2345 90.701ZM21.2357 84.8709L21.5983 85.0599L21.3489 85.8194L26.0765 88.0503L26.4858 87.3795L26.8484 87.5685L25.7888 89.8095L25.4262 89.6206L25.6756 88.8611L20.948 86.6302L20.5387 87.301L20.1762 87.112L21.2357 84.8709ZM24.017 92.8239C24.0828 92.7497 24.1287 92.5783 24.2174 92.4185C24.4179 92.0131 24.4355 91.6046 24.3017 91.2474C24.1679 90.8902 23.8711 90.6271 23.4229 90.4151C23.0175 90.2147 22.609 90.1971 22.3061 90.2995C21.9917 90.4448 21.7401 90.6988 21.5396 91.1041L21.1931 91.8836L23.7653 93.0778C23.874 93.0151 23.9512 92.898 24.017 92.8239Z" fill="#F9B01F"/>
<path d="M23.516 81.6717L23.0984 82.2025L22.7358 82.0136L23.8665 80.0211L24.2291 80.2101L23.9598 80.8724L25.9637 81.9603L27.3951 79.3598L25.3911 78.2719L24.9734 78.8027L24.6109 78.6137L25.6873 76.6526L26.0498 76.8416L25.8348 77.4726L30.4278 80.0347L30.8455 79.5039L31.2081 79.6928L30.1202 81.6968L29.7576 81.5078L30.027 80.8454L27.8631 79.6688L26.4318 82.2694L28.5956 83.446L29.0362 82.8295L29.3988 83.0185L28.2566 85.0538L27.8941 84.8648L28.1519 84.2452L23.516 81.6717Z" fill="#F9B01F"/>
<path d="M27.3131 74.0122L27.7997 73.2244L33.8224 74.5627L34.1628 74.1489L34.5139 74.3807L33.3205 76.2646L32.9694 76.0328L33.2815 75.3819L31.9965 75.0376L30.7029 77.1241L31.5358 78.1277L32.0078 77.5656L32.3589 77.7973L31.3085 79.49L30.9574 79.2582L31.1808 78.7671L27.3131 74.0122ZM28.7068 74.2938L27.9786 74.0987L28.5178 74.6563L30.3748 76.8066L31.5024 74.997L28.7068 74.2938Z" fill="#F9B01F"/>
<path d="M31.6243 68.3731L31.0208 69.0836L30.6697 68.8518L31.9801 67.0452L35.7349 68.2809L36.7713 68.6963L36.0325 67.8556L33.6226 64.6849L34.933 62.8783L35.2841 63.1101L34.8404 63.9094L39.4991 66.3972L40.014 65.8466L40.365 66.0783L38.9116 68.0761L38.5605 67.8444L38.9269 67.1621L35.6243 65.2671L34.1856 64.4685L34.9756 65.4606L37.7419 69.1859L37.4329 69.654L33.3553 68.4237L31.7506 67.9019L32.9804 68.966L35.854 71.4346L36.3917 70.7982L36.7428 71.03L35.4867 72.8052L35.1356 72.5734L35.4906 71.934L31.6243 68.3731Z" fill="#F9B01F"/>
<path d="M36.9012 60.3299L37.462 59.6079L43.301 61.6316L43.6728 61.2721L44.0124 61.5467L42.6278 63.2875L42.2882 63.0129L42.6745 62.4278L41.4668 61.9665L39.9391 63.8984L40.6634 64.9648L41.1667 64.4569L41.5063 64.7316L40.2648 66.2811L39.9252 66.0065L40.1914 65.527L36.9012 60.3299ZM38.2604 60.74L37.5552 60.4593L38.0286 61.0911L39.6026 63.441L40.9214 61.7744L38.2604 60.74Z" fill="#F9B01F"/>
<path d="M40.3015 57.0633L39.7782 57.474L39.4386 57.1994L40.1738 56.3405C40.3054 56.1921 40.4369 56.0437 40.5257 55.8839C40.723 55.6613 40.8776 55.4273 41.0749 55.2047C41.6012 54.6112 42.113 54.2433 42.5444 54.1753C42.9758 54.1072 43.4355 54.2763 43.8806 54.671C44.2202 54.9457 44.4512 55.283 44.5736 55.6831C44.6959 56.0831 44.6897 56.4487 44.5865 56.8342C44.4832 57.2197 44.2827 57.6251 43.9653 57.9532C43.8452 58.0588 43.7564 58.2186 43.6363 58.3242C43.5162 58.4297 43.4504 58.5039 43.439 58.5468L44.86 59.7539L45.6694 58.9608L45.9661 59.2239L44.1669 61.3127L43.8702 61.0495L44.2565 60.4644L40.3015 57.0633ZM43.6685 57.6901C43.9431 57.3505 44.0893 56.9765 44.0526 56.5994C44.0159 56.2223 43.7964 55.8421 43.3199 55.3931C42.949 55.0641 42.6178 54.9295 42.2835 54.9776C41.9492 55.0258 41.6662 55.2254 41.283 55.6277C41.1514 55.7761 41.0626 55.9359 40.9311 56.0843C40.8538 56.2013 40.7995 56.2327 40.788 56.2755L43.068 58.2178C43.2195 58.1666 43.4053 57.9868 43.6685 57.6901Z" fill="#F9B01F"/>
<path d="M48.3405 56.1874C47.8433 56.3296 47.3492 56.289 46.8352 56.1513C46.3327 55.9708 45.8531 55.7045 45.3766 55.2555C44.9429 54.8179 44.6064 54.3605 44.4328 53.809C44.2478 53.3003 44.257 52.7519 44.3519 52.2264C44.4896 51.7124 44.713 51.2214 45.1391 50.8305C45.4566 50.5024 45.8169 50.1858 46.3714 49.8294L46.6002 49.6611L47.6357 50.765L47.2525 51.1673L46.3048 50.592C46.2077 50.6119 46.0562 50.6631 45.8933 50.7572C45.7304 50.8512 45.5445 51.031 45.3586 51.2107C45.1069 51.4646 44.9723 51.7958 44.9348 52.1071C44.8858 52.4613 44.9768 52.807 45.142 53.2185C45.3186 53.5872 45.6238 53.9904 46.0261 54.3736C46.3856 54.7454 46.8223 55.0001 47.2277 55.2006C47.6331 55.401 48.03 55.4615 48.4071 55.4248C48.7842 55.3881 49.1101 55.2 49.4161 54.9147C49.6134 54.6921 49.7565 54.5009 49.8338 54.3839C49.911 54.2669 49.9569 54.0955 49.9485 53.9556L49.5753 53.121L49.9899 52.773L50.7372 53.7537C50.6714 53.8279 50.5826 53.9877 50.4709 54.2333C50.3707 54.436 50.282 54.5958 50.1932 54.7557C50.1045 54.9155 49.9614 55.1067 49.7641 55.3293C49.2837 55.7515 48.7949 56.0337 48.3405 56.1874Z" fill="#F9B01F"/>
<path d="M53.3299 42.8792L53.6151 43.1852L53.0774 43.8216L55.9072 46.9671L55.7345 45.7272L55.5619 41.9164L55.425 41.742L54.8047 42.1726L54.5194 41.8666L56.2665 40.3148L56.5518 40.6207L56.1341 41.1516L59.6286 45.072L60.1947 44.6727L60.48 44.9787L58.7328 46.5306L58.4475 46.2246L58.9624 45.6739L56.1011 42.4741L56.2969 43.6283L56.4464 47.5247L56.6575 47.7649L57.2894 47.2915L57.5747 47.5975L55.816 49.1922L55.5307 48.8862L55.9913 48.3669L52.4967 44.4464L51.9422 44.8028L51.6569 44.4968L53.3299 42.8792Z" fill="#F9B01F"/>
<path d="M57.6935 39.2741C57.8365 39.0828 57.9796 38.8916 58.1112 38.7432C58.2427 38.5949 58.3628 38.4893 58.4829 38.3838C59.0176 37.9302 59.5378 37.7023 59.9692 37.6343C60.4006 37.5663 60.7631 37.7552 61.0798 38.1155C61.3536 38.4643 61.4874 38.8216 61.427 39.2185C61.3665 39.6155 61.2318 39.9467 60.9572 40.2863C61.3603 39.9811 61.7719 39.816 62.1688 39.8764C62.5773 39.894 62.897 40.0715 63.1708 40.4203C63.5502 40.8893 63.6924 41.3865 63.609 41.8691C63.5256 42.3517 63.1622 42.8512 62.5189 43.3674C62.2787 43.5785 62.0071 43.7353 61.7899 43.8607C61.5726 43.9862 61.3669 44.0688 61.2154 44.12C61.064 44.1712 60.9668 44.1911 60.9553 44.2339L60.137 43.0047L60.4858 42.7309L61.3562 43.4232C61.6476 43.3635 62.0163 43.1869 62.3766 42.8702C62.6711 42.6278 62.8372 42.3509 62.8203 42.071C62.815 41.7482 62.7125 41.4453 62.3959 41.085C62.1963 40.8019 61.9194 40.6359 61.6081 40.5984C61.2968 40.5609 60.9396 40.6947 60.5364 40.9999L60.0675 41.3793L59.7509 41.019L60.1112 40.7023C60.2856 40.5654 60.4286 40.3742 60.5289 40.1715C60.6291 39.9688 60.6865 39.7547 60.6582 39.5175C60.6299 39.2804 60.5045 39.0632 60.3362 38.8345C60.0938 38.54 59.8597 38.3854 59.5798 38.4022C59.2998 38.419 59.0398 38.533 58.7567 38.7326C58.5708 38.9123 58.4393 39.0607 58.3077 39.2091C58.1761 39.3575 58.1845 39.4974 58.2044 39.5946L58.5692 40.2892L58.1546 40.6371L57.2674 39.6649C57.376 39.6022 57.5076 39.4538 57.6935 39.2741Z" fill="#F9B01F"/>
<path d="M63.6372 35.0821L62.997 35.4155L62.766 35.0782L63.6809 34.4051C63.8438 34.3111 64.0297 34.1313 64.2584 33.9631C64.4443 33.7833 64.6187 33.6465 64.7273 33.5837C65.3592 33.1103 65.8793 32.8824 66.2878 32.9C66.6962 32.9177 67.0588 33.1066 67.3326 33.4555C67.5636 33.7928 67.6546 34.1385 67.6484 34.5042C67.6423 34.8698 67.4648 35.1895 67.2016 35.4863C67.6162 35.1383 68.0591 35.0274 68.4676 35.045C68.876 35.0626 69.2271 35.2944 69.4581 35.6318C69.7946 36.0892 69.894 36.5749 69.7991 37.1004C69.7042 37.6259 69.2437 38.1452 68.4917 38.7242C68.3173 38.8611 68.1544 38.9552 67.9915 39.0492C67.6113 39.2687 67.4254 39.4485 67.3283 39.4683L66.4134 40.1414L66.1824 39.804L66.6743 39.339L63.6372 35.0821ZM66.0726 36.1019L66.4642 35.8396C66.8016 35.6086 66.9676 35.3317 66.9936 35.0632C67.0196 34.7948 66.9286 34.449 66.6977 34.1117C66.4667 33.7743 66.2327 33.6198 65.9642 33.5938C65.6957 33.5678 65.3385 33.7016 64.9897 33.9754C64.8152 34.1123 64.6523 34.2064 64.5207 34.3547L64.4006 34.4603L65.7781 36.3444C65.7352 36.3329 65.8982 36.2388 66.0726 36.1019ZM68.2294 38.3325C68.6868 37.996 68.9615 37.6564 69.0105 37.3023C69.0594 36.9481 68.9684 36.6024 68.7375 36.2651C68.4637 35.9162 68.1983 35.7074 67.9298 35.6814C67.6185 35.6439 67.3041 35.7892 66.901 36.0943C66.4435 36.4308 66.1605 36.6305 66.0404 36.736L67.5119 38.783C67.609 38.7631 67.8377 38.5949 68.2294 38.3325Z" fill="#F9B01F"/>
<path d="M69.2984 30.4013L70.0817 29.8767L75.0104 33.5846L75.4877 33.3452L75.7187 33.6825L73.869 34.9314L73.6381 34.5941L74.1728 34.1406L73.154 33.3167L71.0871 34.691L71.4427 35.934L72.0829 35.6006L72.3139 35.9379L70.6387 37.0499L70.4077 36.7126L70.7795 36.3531L69.2984 30.4013ZM70.5 31.2283L69.895 30.7448L70.1511 31.5021L70.9334 34.2367L72.7173 33.0619L70.5 31.2283Z" fill="#F9B01F"/>
<path d="M76.768 32.6784C76.2624 32.6806 75.8027 32.5116 75.3232 32.2453C74.8979 31.9477 74.5071 31.5217 74.1507 30.9671C73.8371 30.424 73.6635 29.8725 73.6185 29.3554C73.5734 28.8383 73.7226 28.2815 73.9773 27.8447C74.2436 27.3652 74.6153 27.0057 75.1156 26.6807C75.4958 26.4612 75.9616 26.2646 76.5674 26.0597L76.8275 25.9457L77.5257 27.2805L77.037 27.5628L76.2867 26.7649C76.201 26.7419 76.0495 26.7932 75.8552 26.8329C75.661 26.8727 75.4437 26.9981 75.2265 27.1235C74.9006 27.3117 74.6918 27.5771 74.5686 27.8654C74.434 28.1966 74.385 28.5508 74.453 28.9822C74.521 29.4136 74.7176 29.8794 75.0113 30.3254C75.305 30.7714 75.6101 31.1745 75.9497 31.4491C76.2893 31.7237 76.6518 31.9127 77.0373 32.016C77.4228 32.1193 77.7686 32.0283 78.1488 31.8088C78.4203 31.652 78.5947 31.5151 78.672 31.3981C78.7921 31.2926 78.8808 31.1327 78.9153 31.0042L78.7907 30.0985L79.268 29.8592L79.7008 30.9851C79.5922 31.0479 79.4721 31.1534 79.329 31.3446C79.1975 31.493 79.0659 31.6414 78.8915 31.7783C78.7599 31.9267 78.5427 32.0521 78.3254 32.1775C77.8137 32.5454 77.2736 32.6761 76.768 32.6784Z" fill="#F9B01F"/>
<path d="M81.1627 24.6739C81.2033 24.1798 81.3295 23.7086 81.5728 23.3147C81.8161 22.9208 82.1221 22.6355 82.5566 22.3847C83.0454 22.1024 83.5311 22.0031 83.9824 22.0322C84.4337 22.0613 84.8933 22.2303 85.2643 22.5593C85.6352 22.8882 85.9832 23.3028 86.3083 23.8031C86.6532 24.4005 86.8153 24.9949 86.8489 25.5548C86.8825 26.1147 86.7991 26.5973 86.5443 27.0341C86.2896 27.4708 85.9722 27.7989 85.5377 28.0498C85.0489 28.332 84.5632 28.4314 84.069 28.3908C83.6177 28.3617 83.158 28.1926 82.7756 27.9065C82.3932 27.6204 82.0024 27.1943 81.7316 26.6627L80.5483 27.3097L81.7169 29.4591L82.3885 29.18L82.5651 29.5487L80.5243 30.6546L80.3476 30.2859L80.9137 29.8867L78.4312 25.2733L77.7711 25.5096L77.5516 25.1295L79.5381 24.0549L79.7576 24.4351L79.1916 24.8343L80.2661 26.8209L81.4923 26.1854C81.2529 25.708 81.1535 25.2223 81.1627 24.6739ZM81.9575 24.1064C81.894 24.6862 82.076 25.3777 82.5463 26.1923C82.9539 26.8984 83.3646 27.4216 83.887 27.6993C84.4094 27.977 84.8607 28.0061 85.3924 27.7354C85.8697 27.496 86.1244 27.0593 86.1337 26.5108C86.1429 25.9624 85.9609 25.2709 85.5334 24.4677C85.1257 23.7617 84.715 23.2385 84.2355 22.9722C83.7559 22.706 83.2618 22.6654 82.7845 22.9048C82.3072 23.1442 82.021 23.5266 81.9575 24.1064Z" fill="#F9B01F"/>
<path d="M90.5027 22.5398C90.8225 22.7173 91.2164 22.9606 91.7388 23.2383C92.0898 23.4701 92.3239 23.6246 92.5266 23.7249C92.7293 23.8251 92.8149 23.848 92.9121 23.8281L93.2463 23.78L93.423 24.1487L92.4798 24.5846C92.3712 24.6473 92.1999 24.6014 91.9544 24.4897C91.7088 24.378 91.4006 24.1577 90.9753 23.8601C90.5187 23.5082 90.1248 23.2649 89.848 23.0989C89.5711 22.9329 89.3454 22.9184 89.194 22.9696L88.7167 23.209L89.7453 25.3669L90.4482 25.142L90.6249 25.5107L88.5213 26.508L88.3447 26.1393L88.9421 25.7944L86.7197 21.0671L86.071 21.2606L85.8944 20.8919L87.9436 19.926L88.1203 20.2947L87.5114 20.6824L88.5285 22.8831L89.1688 22.5497L89.6807 19.611L88.9778 19.8358L88.8011 19.4671L90.6874 18.5953L90.8641 18.964L90.3095 19.3204L89.6889 22.3218C89.8717 22.3249 90.1716 22.4052 90.5027 22.5398Z" fill="#F9B01F"/>
<path d="M94.6522 23.3304C94.1696 23.247 93.7757 23.0037 93.4162 22.6319C93.0568 22.2602 92.7202 21.8027 92.4725 21.1854C92.2247 20.5681 92.0939 20.0281 92.146 19.4911C92.1981 18.9542 92.3243 18.483 92.6219 18.0577C92.9195 17.6325 93.3226 17.3273 93.7884 17.1308C94.6115 16.8004 95.2999 16.8012 95.9508 17.1134C96.6017 17.4255 97.118 18.0688 97.4797 18.9462C97.7275 19.5635 97.8468 20.1464 97.7947 20.6833C97.7426 21.2203 97.6049 21.7343 97.3073 22.1595C97.0097 22.5848 96.6066 22.89 96.1408 23.0865C95.6091 23.3572 95.1349 23.4138 94.6522 23.3304ZM93.0295 18.7638C92.9232 19.3321 93.0623 20.0121 93.3812 20.878C93.723 21.6582 94.1223 22.2243 94.5904 22.5334C95.047 22.8852 95.5411 22.9258 96.0612 22.6979C96.5699 22.5129 96.8675 22.0876 96.9739 21.5193C97.0802 20.951 96.9526 20.2281 96.5794 19.3936C96.2375 18.6134 95.8383 18.0473 95.3702 17.7383C94.9021 17.4292 94.4195 17.3458 93.8993 17.5737C93.422 17.813 93.1359 18.1955 93.0295 18.7638Z" fill="#F9B01F"/>
<path d="M97.9687 16.093L97.2887 16.2321L97.1664 15.8321L98.2381 15.4306C98.4323 15.3908 98.6496 15.2654 98.9097 15.1514C99.1697 15.0375 99.3327 14.9434 99.4726 14.935C100.187 14.6674 100.758 14.5909 101.144 14.6942C101.529 14.7975 101.826 15.0607 101.98 15.515C102.114 15.8723 102.15 16.2494 102.016 16.5806C101.881 16.9117 101.661 17.22 101.335 17.4081C101.844 17.2231 102.264 17.1978 102.649 17.3011C103.035 17.4044 103.32 17.7104 103.474 18.1648C103.659 18.6735 103.649 19.2219 103.395 19.6586C103.128 20.1382 102.562 20.5374 101.696 20.8563C101.491 20.9389 101.339 20.9901 101.145 21.0299C100.745 21.1523 100.485 21.2662 100.388 21.2861L99.316 21.6876L99.1822 21.3303L99.8225 20.9969L97.9687 16.093ZM100.049 17.7522L100.504 17.5985C100.861 17.4647 101.101 17.2536 101.224 16.9652C101.347 16.6769 101.342 16.3541 101.165 15.9854C101.031 15.6282 100.82 15.388 100.575 15.2763C100.329 15.1646 99.9522 15.2013 99.4979 15.355C99.2921 15.4376 99.1292 15.5316 98.9234 15.6142L98.7605 15.7083L99.5948 17.9059C99.6491 17.8746 99.8005 17.8233 100.049 17.7522ZM101.477 20.4761C101.986 20.2911 102.334 20.0173 102.512 19.6976C102.689 19.3778 102.684 19.0551 102.53 18.6007C102.365 18.1892 102.154 17.949 101.909 17.8373C101.62 17.7141 101.243 17.7508 100.777 17.9473C100.226 18.1209 99.9114 18.2662 99.76 18.3174L100.646 20.6665C100.763 20.7438 101.065 20.6413 101.477 20.4761Z" fill="#F9B01F"/>
<path d="M110.375 11.429L110.497 11.8291L109.857 12.1625L111.365 17.1575L112.142 16.9984L112.264 17.3985L110.015 18.0813L109.893 17.6813L110.522 17.3907L108.983 12.3414L106.388 13.1153L107.927 18.1645L108.704 18.0055L108.827 18.4056L106.578 19.0884L106.456 18.6884L107.084 18.3978L105.576 13.4028L104.853 13.5305L104.731 13.1305L110.375 11.429Z" fill="#F9B01F"/>
<path d="M113.89 16.6407C113.43 16.4716 113.048 16.1855 112.743 15.7824C112.438 15.3793 112.21 14.8591 112.059 14.2219C111.909 13.5848 111.875 13.0249 111.981 12.4565C112.076 11.9311 112.331 11.4943 112.66 11.1234C112.989 10.7524 113.423 10.5016 113.963 10.3708C114.806 10.1376 115.515 10.2356 116.131 10.6762C116.705 11.1054 117.124 11.7686 117.365 12.7515C117.516 13.3887 117.538 13.9914 117.443 14.5169C117.337 15.0852 117.082 15.5219 116.71 15.8814C116.339 16.2409 115.904 16.4917 115.407 16.634C114.813 16.7961 114.35 16.8098 113.89 16.6407ZM112.928 11.8378C112.736 12.3832 112.778 13.0831 112.999 13.9688C113.19 14.8003 113.535 15.3977 113.937 15.781C114.339 16.1642 114.853 16.302 115.35 16.1597C115.89 16.029 116.208 15.7009 116.411 15.1127C116.603 14.5673 116.573 13.8246 116.351 12.9388C116.161 12.1073 115.816 11.5099 115.414 11.1267C115.011 10.7434 114.54 10.6172 114 10.7479C113.48 10.9758 113.108 11.3353 112.928 11.8378Z" fill="#F9B01F"/>
<path d="M120.167 13.089C120.229 13.8861 120.166 14.4659 119.997 14.9255C119.939 15.1397 119.796 15.3309 119.676 15.4365C119.556 15.542 119.393 15.6361 119.199 15.6758C118.95 15.747 118.724 15.7324 118.627 15.7523L118.434 15.1036C118.574 15.0952 118.768 15.0555 119.06 14.9958C119.157 14.976 119.254 14.9561 119.32 14.8819C119.385 14.8077 119.451 14.7335 119.486 14.605C119.778 13.857 119.682 12.5 119.265 10.46L119.114 9.82282L118.123 9.92446L118.043 9.53589L122.804 8.56181L122.883 8.95039L122.126 9.20656L123.179 14.3552L124.031 14.262L124.11 14.6505L121.585 15.1674L121.505 14.7788L122.359 14.5028L121.306 9.35412L119.654 9.69206L119.825 10.4264C119.969 11.4292 120.094 12.3348 120.167 13.089Z" fill="#F9B01F"/>
<path d="M124.5 8.74088L123.812 8.74005L123.744 8.30865L127.972 7.6053L128.316 8.89113L127.842 8.94769L127.457 8.15599L125.409 8.43347L125.789 10.7848L127.192 10.518L127.192 9.82956L127.667 9.773L127.979 11.6929L127.504 11.7495L127.28 11.0465L125.888 11.2705L126.277 13.7618L128.608 13.2847L128.864 12.1596L129.389 12.2545L129.407 13.7285L124.802 14.4685L124.722 14.0799L125.414 13.8979L124.5 8.74088Z" fill="#F9B01F"/>
<path d="M131.446 7.66373L130.011 7.87625L129.949 9.65005L129.378 9.72649L129.244 7.48685L134.46 6.86467L134.832 9.07603L134.315 9.12112L133.817 7.38092L132.363 7.4963L133.016 12.7673L134.222 12.723L134.247 13.143L131.067 13.5305L131.042 13.1106L132.111 12.8919L131.446 7.66373Z" fill="#F9B01F"/>
<path d="M138.333 10.0601L137.913 10.0853C137.793 10.1908 137.649 10.382 137.538 10.6276C137.415 10.9159 137.28 11.2471 137.165 11.6754C137.008 12.0923 136.927 12.3921 136.827 12.5948C136.727 12.7975 136.65 12.9145 136.552 12.9344L135.421 13.0445L135.396 12.6245L135.699 12.5221C135.796 12.5022 135.862 12.428 135.95 12.2681C136.039 12.1083 136.151 11.8628 136.286 11.5316C136.432 11.1575 136.609 10.8378 136.721 10.5923C136.875 10.3583 137.018 10.167 137.181 10.073C136.784 10.0125 136.465 9.83503 136.222 9.54052C135.98 9.24601 135.846 8.88879 135.821 8.46886C135.767 7.81181 135.948 7.30928 136.297 7.03548C136.7 6.73032 137.251 6.55673 137.994 6.5262C138.134 6.5178 138.371 6.48952 138.64 6.51554C138.92 6.49874 139.102 6.50182 139.242 6.49342L140.459 6.40632L140.484 6.82626L139.804 6.96541L140.213 12.1247L140.987 12.1485L141.012 12.5684L138.524 12.774L138.498 12.354L139.318 12.2065L139.141 9.95535L138.333 10.0601ZM138.676 6.89264C138.408 6.86661 138.213 6.90637 137.988 6.89182C137.568 6.91703 137.211 7.05086 137.025 7.23059C136.785 7.44168 136.693 7.78435 136.749 8.25859C136.763 8.72136 136.951 9.04722 137.162 9.28742C137.428 9.49626 137.77 9.58808 138.19 9.56287C138.653 9.54914 138.945 9.48951 139.085 9.48111L138.902 6.9072L138.676 6.89264Z" fill="#F9B01F"/>
<path d="M143.51 6.67265L142.055 6.78803L141.811 8.55875L141.251 8.59235L141.31 6.31295L146.552 6.1107L146.73 8.36182L146.224 8.36408L145.866 6.61548L144.392 6.63371L144.572 11.9613L145.754 12.0027L145.779 12.4226L142.583 12.5302L142.557 12.1102L143.646 11.9887L143.51 6.67265Z" fill="#F9B01F"/>
<path d="M150.647 12.0742C150.222 11.7766 149.905 11.4164 149.666 10.939C149.426 10.4617 149.35 9.89033 149.339 9.24475C149.371 8.61065 149.521 8.05381 149.787 7.57424C150.053 7.09468 150.425 6.7352 150.902 6.49583C151.38 6.25646 151.877 6.11423 152.468 6.13493C152.876 6.15256 153.413 6.20462 154.013 6.3653L154.27 6.43416L154.137 7.95937L153.588 7.95014L153.413 6.89303C153.338 6.82724 153.221 6.74998 153.007 6.69259C152.793 6.6352 152.567 6.62065 152.299 6.59462C151.933 6.58847 151.63 6.69094 151.347 6.89056C151.064 7.09017 150.844 7.39841 150.655 7.76096C150.497 8.17781 150.383 8.60615 150.362 9.19741C150.353 9.74585 150.409 10.2201 150.532 10.6201C150.654 11.0202 150.873 11.4004 151.17 11.6635C151.467 11.9267 151.798 12.0613 152.207 12.0789C152.529 12.0736 152.712 12.0767 152.907 12.0369C153.058 11.9857 153.209 11.9345 153.33 11.8289L153.688 11.0067L154.213 11.1016L153.989 12.281C153.849 12.2894 153.697 12.3407 153.46 12.369C153.266 12.4087 153.06 12.4913 152.877 12.4882C152.683 12.528 152.457 12.5134 152.178 12.5302C151.586 12.5095 151.072 12.3718 150.647 12.0742Z" fill="#F9B01F"/>
<path d="M157.681 6.38397L157.663 6.79242L156.823 6.84283L156.515 11.0758L157.285 10.0883L159.913 7.30356L159.928 7.07792L159.188 6.92564L159.206 6.51718L161.505 6.67419L161.487 7.08265L160.83 7.13613L160.484 12.3688L161.181 12.5096L161.163 12.918L158.821 12.7496L158.839 12.3411L159.582 12.3106L159.858 8.02333L159.154 8.93657L156.472 11.7527L156.434 12.064L157.228 12.1849L157.21 12.5934L154.825 12.4134L154.843 12.005L155.543 11.963L155.889 6.73031L155.235 6.60098L155.253 6.19253L157.681 6.38397Z" fill="#F9B01F"/>
<path d="M166.821 7.22618L166.644 9.42831L166.064 9.36478L166.018 7.65368L164.161 7.38581L163.567 12.6896L165.015 12.9398L164.954 13.3368L161.658 12.9587L161.719 12.5617L162.633 12.5771L163.193 7.40179L162.336 7.17225L162.397 6.77527L166.821 7.22618Z" fill="#F9B01F"/>
<path d="M168.24 7.92789L167.608 7.7129L167.669 7.31592L169.922 7.64426L169.862 8.04124L169.131 8.02893L168.802 10.2823L171.71 10.74L172.038 8.4866L171.364 8.26013L171.425 7.86315L173.678 8.19148L173.617 8.58846L172.929 8.58764L172.143 13.7484L172.786 13.9205L172.725 14.3175L170.472 13.9892L170.532 13.5922L171.221 13.593L171.595 11.1683L168.688 10.7106L168.313 13.1353L169.041 13.3305L168.981 13.7274L166.685 13.3876L166.745 12.9906L167.434 12.9915L168.24 7.92789Z" fill="#F9B01F"/>
<path d="M176.722 8.82349L177.633 9.02168L178.477 15.1241L178.98 15.3047L178.919 15.7017L176.743 15.2563L176.803 14.8593L177.523 14.9145L177.373 13.5889L174.983 13.0861L174.35 14.248L175.024 14.4744L174.964 14.8714L173.002 14.4834L173.062 14.0865L173.611 14.0957L176.722 8.82349ZM176.989 10.2263L176.916 9.47215L176.592 10.1659L175.238 12.6494L177.328 13.0718L176.989 10.2263Z" fill="#F9B01F"/>
<path d="M181.54 13.9707C181.26 14.6759 180.928 15.2297 180.61 15.5578C180.424 15.7376 180.261 15.8316 180.11 15.8829C179.958 15.9341 179.776 15.931 179.561 15.8736C179.304 15.8048 179.09 15.7474 178.973 15.6701L179.06 15.0047C179.188 15.0391 179.402 15.0965 179.659 15.1653C179.745 15.1883 179.842 15.1684 179.939 15.1485C180.036 15.1287 180.102 15.0545 180.222 14.9489C180.78 14.4097 181.35 13.1393 181.847 11.1146L182.019 10.4721L181.119 10.2311L181.234 9.80276L185.969 10.9796L185.854 11.4079L185.048 11.3298L183.78 16.4071L184.571 16.7109L184.467 17.0964L181.929 16.462L182.032 16.0765L182.912 16.2204L184.18 11.1431L182.498 10.7383L182.303 11.4665C182.105 12.3775 181.821 13.2655 181.54 13.9707Z" fill="#F9B01F"/>
<path d="M188.784 14.3507C189.415 14.5657 189.884 14.8748 190.146 15.2664C190.408 15.6581 190.453 16.1751 190.261 16.7205C190.046 17.3515 189.706 17.7653 189.24 17.9618C188.72 18.1897 188.171 18.1805 187.529 18.0084C187.443 17.9854 187.358 17.9624 187.272 17.9395C187.186 17.9165 187.101 17.8936 186.984 17.8163C186.695 17.6931 186.395 17.6128 186.15 17.5011L185.048 17.1599L185.151 16.7744L185.848 16.9152L187.373 11.9067L186.765 11.6061L186.869 11.2206L189.159 11.926L189.055 12.3115L188.219 12.1791L187.628 14.0408L188.784 14.3507ZM187.055 17.3765C187.141 17.3995 187.301 17.4882 187.472 17.5341C187.943 17.6604 188.309 17.6665 188.635 17.4784C188.961 17.2902 189.181 16.982 189.307 16.5108C189.434 16.0397 189.428 15.7169 189.24 15.391C189.083 15.1195 188.775 14.8991 188.315 14.7301L187.502 14.512L186.681 17.2304C186.853 17.2763 186.97 17.3535 187.055 17.3765ZM194.553 13.5549L194.449 13.9404L193.655 13.8195L192.13 18.828L192.866 19.163L192.763 19.5485L190.387 18.8202L190.491 18.4347L191.273 18.5984L192.799 13.59L192.062 13.2549L192.165 12.8694L194.553 13.5549Z" fill="#F9B01F"/>
<path d="M198.018 15.3559L197.422 15.0125L197.568 14.6384L199.695 15.4379L199.549 15.812L198.852 15.6712L198.052 17.7983L200.842 18.8671L201.641 16.74L201.045 16.3965L201.191 16.0224L203.318 16.822L203.172 17.196L202.518 17.0666L200.65 21.9833L201.258 22.2839L201.112 22.658L198.984 21.8584L199.131 21.4844L199.816 21.6681L200.704 19.3811L197.915 18.3123L197.026 20.5993L197.666 20.9542L197.52 21.3282L195.361 20.4744L195.507 20.1004L196.193 20.284L198.018 15.3559Z" fill="#F9B01F"/>
<path d="M206.127 17.988L206.992 18.3575L206.533 24.5241L206.959 24.8217L206.813 25.1957L204.763 24.2792L204.909 23.9052L205.583 24.1316L205.756 22.8007L203.492 21.8268L202.636 22.7913L203.276 23.1462L203.13 23.5203L201.283 22.704L201.429 22.3299L201.943 22.4677L206.127 17.988ZM206.103 19.4505L206.212 18.6994L205.729 19.3044L203.875 21.4245L205.851 22.2752L206.103 19.4505Z" fill="#F9B01F"/>
<path d="M212.307 21.4803L211.531 20.9509L211.72 20.5884L213.692 21.6219L213.014 25.5259L212.77 26.6083L213.493 25.7922L216.273 22.9562L218.246 23.9897L218.057 24.3523L217.18 24.0256L215.355 28.9537L215.971 29.3943L215.782 29.7568L213.65 28.6345L213.839 28.272L214.544 28.5528L215.948 25.0267L216.544 23.4878L215.657 24.3979L212.397 27.6561L211.917 27.3899L212.591 23.1631L212.887 21.5439L212.014 22.9168L209.959 26.1307L210.661 26.5943L210.473 26.9569L208.543 25.9348L208.732 25.5722L209.394 25.8415L212.307 21.4803Z" fill="#F9B01F"/>
<path d="M221.038 25.5641L221.826 26.0507L220.659 32.1193L221.084 32.4169L220.895 32.7794L218.988 31.6717L219.177 31.3091L219.839 31.5784L220.129 30.3248L218.031 29.074L217.059 29.9612L217.633 30.3903L217.444 30.7529L215.74 29.7454L215.929 29.3828L216.431 29.5634L221.038 25.5641ZM220.842 26.9807L221.037 26.2525L220.479 26.7917L218.36 28.703L220.224 29.7993L220.842 26.9807Z" fill="#F9B01F"/>
<path d="M224.764 28.4449L224.288 27.9959L224.52 27.6448L225.456 28.2629C225.616 28.3517 225.807 28.4947 225.967 28.5835C226.244 28.7495 226.489 28.8612 226.723 29.0157C227.383 29.4678 227.816 29.9054 227.927 30.3483C228.038 30.7911 227.955 31.2738 227.646 31.7419C227.402 32.1358 227.108 32.3782 226.739 32.5549C226.37 32.7316 225.993 32.7682 225.596 32.7078C225.199 32.6473 224.782 32.4897 224.389 32.2464C224.229 32.1577 224.112 32.0804 223.963 31.9489C223.803 31.8601 223.729 31.7943 223.698 31.74L222.682 33.3041L223.595 34.0079L223.363 34.359L221.054 32.868L221.286 32.5169L221.937 32.8291L224.764 28.4449ZM224.62 31.8954C225.014 32.1386 225.357 32.2305 225.746 32.1509C226.134 32.0714 226.483 31.7976 226.815 31.2439C227.058 30.85 227.161 30.4645 227.059 30.1615C226.957 29.8586 226.714 29.5641 226.289 29.2665C226.129 29.1778 225.969 29.0891 225.766 28.9888C225.649 28.9116 225.564 28.8886 225.564 28.8886L223.93 31.3889C224.078 31.5205 224.269 31.6636 224.62 31.8954Z" fill="#F9B01F"/>
<path d="M226.752 36.2769C226.556 35.811 226.51 35.294 226.594 34.8113C226.677 34.3287 226.924 33.752 227.298 33.2097C227.662 32.7102 228.088 32.3194 228.565 32.08C229.043 31.8407 229.571 31.7527 230.108 31.8048C230.645 31.8569 231.148 32.0374 231.604 32.3893C231.955 32.6211 232.358 33.0044 232.748 33.4304L232.971 33.6278L232.015 34.795L231.547 34.4859L231.994 33.5038C231.974 33.4067 231.869 33.2866 231.775 33.1236C231.681 32.9607 231.447 32.8062 231.213 32.6516C230.904 32.4313 230.604 32.351 230.239 32.3448C229.873 32.3387 229.516 32.4725 229.179 32.7035C228.841 32.9344 228.47 33.2939 228.172 33.7192C227.874 34.1444 227.662 34.5926 227.505 35.0095C227.39 35.4378 227.33 35.8348 227.452 36.2349C227.574 36.6349 227.774 36.918 228.125 37.1497C228.359 37.3043 228.55 37.4473 228.722 37.4932C228.893 37.5391 229.021 37.5736 229.161 37.5652L229.933 37.0834L230.336 37.4666L229.46 38.3339C229.343 38.2567 229.172 38.2108 228.969 38.1105C228.755 38.0532 228.595 37.9644 228.381 37.907C228.221 37.8183 228.019 37.7181 227.785 37.5635C227.339 37.1688 226.949 36.7427 226.752 36.2769Z" fill="#F9B01F"/>
<path d="M239.038 38.0541L238.764 38.3937L238.061 37.9301L235.392 41.209L236.593 40.8419L240.327 40.098L240.47 39.9068L239.974 39.3606L240.248 39.021L242.052 40.5143L241.777 40.8539L241.181 40.5104L237.842 44.574L238.35 45.0773L238.087 45.3741L236.283 43.8809L236.546 43.5841L237.174 43.9819L239.898 40.6717L238.795 41.0188L234.963 41.7826L234.766 42.0052L235.305 42.5629L235.042 42.8596L233.196 41.3549L233.459 41.0581L234.044 41.4445L237.382 37.3808L236.917 36.889L237.192 36.5494L239.038 38.0541Z" fill="#F9B01F"/>
<path d="M243.31 41.8154C243.556 41.9271 243.704 42.0587 243.864 42.1474C244.024 42.2362 244.172 42.3678 244.289 42.445C244.809 42.9055 245.145 43.363 245.256 43.8059C245.367 44.2487 245.264 44.6342 244.946 44.9624C244.629 45.2905 244.303 45.4786 243.895 45.461C243.517 45.4977 243.132 45.3944 242.781 45.1626C243.14 45.5344 243.36 45.9145 243.396 46.2916C243.433 46.6687 243.287 47.0427 243.024 47.3395C242.629 47.7846 242.152 48.024 241.658 47.9834C241.152 47.9857 240.63 47.708 239.993 47.1702C239.728 46.9614 239.56 46.7326 239.391 46.5039C239.223 46.2752 239.129 46.1123 239.024 45.9922C238.961 45.8836 238.898 45.7749 238.867 45.7206L239.959 44.7279L240.256 44.991L239.723 45.9502C239.826 46.2531 240.068 46.5476 240.396 46.865C240.693 47.1282 240.939 47.2399 241.273 47.1917C241.564 47.1321 241.879 46.9868 242.153 46.6472C242.405 46.3933 242.486 46.0934 242.523 45.7821C242.561 45.4708 242.33 45.1335 241.959 44.8045L241.513 44.4098L241.831 44.0817L242.202 44.4106C242.393 44.5537 242.584 44.6967 242.798 44.7541C243.013 44.8115 243.238 44.8261 243.487 44.755C243.735 44.6838 243.91 44.5469 244.107 44.3244C244.37 44.0276 244.482 43.7821 244.422 43.4906C244.406 43.2107 244.237 42.982 243.941 42.7188C243.761 42.5329 243.601 42.4442 243.398 42.344C243.239 42.2552 243.099 42.2636 243.001 42.2835L242.37 42.7569L241.956 42.4165L242.78 41.3977C242.917 41.5721 243.076 41.6609 243.31 41.8154Z" fill="#F9B01F"/>
<path d="M248.331 47.0631L247.932 46.4971L248.238 46.2118L249.031 47.0211C249.18 47.1527 249.359 47.3386 249.582 47.5359C249.804 47.7333 249.953 47.8649 250.027 47.9307C250.566 48.4883 250.903 48.9458 250.928 49.3657C251.007 49.7543 250.861 50.1283 250.544 50.4564C250.238 50.7417 249.924 50.887 249.589 50.9352C249.255 50.9833 248.869 50.88 248.518 50.6482C248.921 51.0315 249.14 51.4117 249.165 51.8316C249.191 52.2515 249.056 52.5827 248.739 52.9108C248.355 53.3131 247.847 53.4982 247.352 53.4576C246.816 53.4056 246.219 53.0621 245.563 52.4271C245.414 52.2956 245.277 52.1212 245.172 52.0011C244.887 51.6951 244.707 51.5092 244.633 51.4434L243.84 50.6341L244.146 50.3488L244.719 50.7779L248.331 47.0631ZM245.837 52.0876C246.24 52.4708 246.591 52.7026 246.956 52.7087C247.322 52.7149 247.636 52.5696 247.942 52.2843C248.248 51.999 248.383 51.6678 248.366 51.3879C248.349 51.1079 248.161 50.7821 247.802 50.4103C247.399 50.027 247.145 49.7754 247.04 49.6553L245.278 51.4327C245.298 51.5299 245.521 51.7273 245.837 52.0876ZM247.74 49.6133L248.068 49.9307C248.365 50.1939 248.642 50.3599 248.922 50.3431C249.201 50.3263 249.516 50.181 249.779 49.8842C250.042 49.5875 250.197 49.3534 250.18 49.0734C250.163 48.7935 249.975 48.4676 249.647 48.1502C249.498 48.0186 249.35 47.887 249.159 47.744L249.011 47.6124L247.369 49.2843C247.455 49.3073 247.56 49.4274 247.74 49.6133Z" fill="#F9B01F"/>
<path d="M253.876 51.9L254.52 52.5778L251.643 58.0045L251.937 58.4504L251.631 58.7357L250.142 57.0972L250.448 56.8119L250.967 57.2724L251.642 56.1221L249.974 54.2976L248.77 54.8475L249.212 55.425L248.906 55.7103L247.554 54.2462L247.86 53.9609L248.274 54.3013L253.876 51.9ZM253.208 53.1903L253.618 52.5195L252.923 52.8843L250.354 54.0781L251.812 55.6624L253.208 53.1903Z" fill="#F9B01F"/>
<path d="M252.724 59.6255C252.636 59.097 252.719 58.6143 252.943 58.1233C253.166 57.6323 253.518 57.1756 254.041 56.7649C254.521 56.3427 255.042 56.1148 255.582 55.9841C256.122 55.8533 256.659 55.9054 257.161 56.086C257.664 56.2665 258.089 56.5641 258.468 57.033C258.742 57.3818 259.036 57.8278 259.307 58.3594L259.42 58.6195L258.211 59.535L257.863 59.1204L258.555 58.25C258.536 58.1528 258.527 58.0129 258.433 57.8499C258.339 57.687 258.214 57.4698 258.034 57.2839C257.791 56.9894 257.514 56.8234 257.172 56.7315C256.829 56.6397 256.452 56.6764 256.052 56.7988C255.652 56.9211 255.217 57.172 254.803 57.5199C254.388 57.8679 254.059 58.2389 253.828 58.59C253.584 58.9839 253.481 59.3694 253.475 59.735C253.469 60.1006 253.602 60.4578 253.876 60.8066C254.087 61.0468 254.236 61.1784 254.396 61.2672C254.555 61.3559 254.673 61.4332 254.812 61.4248L255.667 61.1487L255.961 61.5947L254.917 62.2333C254.843 62.1675 254.695 62.0359 254.503 61.8929C254.301 61.7926 254.152 61.6611 254.004 61.5295C253.856 61.3979 253.664 61.2549 253.496 61.0261C253.051 60.6314 252.812 60.1541 252.724 59.6255Z" fill="#F9B01F"/>
<path d="M261.298 62.7493C261.815 62.7042 262.255 62.7761 262.672 62.9337C263.089 63.0913 263.46 63.4203 263.733 63.7691C264.07 64.2265 264.235 64.6381 264.292 65.1123C264.305 65.5751 264.233 66.0149 263.979 66.4516C263.724 66.8884 263.384 67.3021 262.872 67.67C262.349 68.0807 261.774 68.34 261.234 68.4707C260.694 68.6015 260.2 68.5609 259.697 68.3803C259.195 68.1998 258.855 67.9251 258.55 67.522C258.214 67.0646 258.017 66.5987 257.96 66.1245C257.904 65.6502 258.019 65.2219 258.231 64.7737C258.485 64.337 258.826 63.9232 259.295 63.5438L258.485 62.4545L256.523 63.949L256.9 64.6007L256.562 64.8317L255.173 62.9904L255.511 62.7595L256.019 63.2628L260.17 60.1057L259.825 59.5083L260.174 59.2344L261.531 61.0214L261.183 61.2952L260.675 60.7918L258.888 62.1494L259.698 63.2387C260.315 62.9909 260.812 62.8487 261.298 62.7493ZM262.028 63.45C261.469 63.4836 260.797 63.7627 260.045 64.3417C259.402 64.8579 258.953 65.3344 258.761 65.8798C258.569 66.4251 258.625 66.8994 258.962 67.3568C259.31 67.7714 259.715 67.9719 260.286 67.8954C260.846 67.8618 261.487 67.5284 262.227 66.9922C262.87 66.476 263.319 65.9995 263.511 65.4541C263.703 64.9088 263.647 64.4345 263.342 64.0314C263.037 63.6283 262.588 63.4164 262.028 63.45Z" fill="#F9B01F"/>
<path d="M264.881 71.6515C264.789 71.9942 264.577 72.4424 264.343 72.9763C264.154 73.3388 264.073 73.6386 263.984 73.7985C263.939 73.9698 263.893 74.1412 263.924 74.1955L264.026 74.4984L263.689 74.7294L263.09 73.8803C263.028 73.7716 263.031 73.5888 263.142 73.3433C263.254 73.0978 263.4 72.7238 263.612 72.2756C263.89 71.7531 264.047 71.3363 264.171 71.0479C264.294 70.7596 264.265 70.5224 264.214 70.371L263.921 69.925L261.951 71.2795L262.273 71.9626L261.935 72.1936L260.655 70.2896L260.993 70.0586L261.446 70.5933L265.766 67.6649L265.475 67.0361L265.812 66.8052L267.061 68.6548L266.724 68.8858L266.271 68.3511L264.258 69.6941L264.646 70.303L267.613 70.3636L267.28 69.7234L267.617 69.4924L268.761 71.222L268.423 71.4529L267.958 70.9611L264.916 70.8346C264.999 71.0404 264.973 71.3088 264.881 71.6515Z" fill="#F9B01F"/>
<path d="M264.713 75.8761C264.742 75.4248 264.868 74.9536 265.208 74.5398C265.506 74.1146 265.932 73.7237 266.475 73.4102C267.03 73.0538 267.581 72.8802 268.098 72.8351C268.658 72.8015 269.141 72.8849 269.589 73.0968C270.037 73.3087 270.408 73.6377 270.691 74.1265C271.13 74.8868 271.269 75.5668 271.031 76.2835C270.804 76.9574 270.278 77.5509 269.452 78.0641C268.897 78.4205 268.346 78.5941 267.774 78.6705C267.214 78.7041 266.732 78.6207 266.241 78.3973C265.793 78.1854 265.433 77.8136 265.139 77.3676C264.826 76.8245 264.726 76.3388 264.713 75.8761ZM269.012 73.5389C268.463 73.5297 267.76 73.7545 266.988 74.2363C266.271 74.6868 265.779 75.1518 265.544 75.6857C265.266 76.2081 265.323 76.6823 265.605 77.1711C265.899 77.6171 266.336 77.8718 266.884 77.8811C267.475 77.9018 268.135 77.6655 268.907 77.1836C269.625 76.7332 270.117 76.2681 270.352 75.7343C270.575 75.2432 270.573 74.7376 270.29 74.2488C269.997 73.8029 269.603 73.5596 269.012 73.5389Z" fill="#F9B01F"/>
<path d="M272.389 78.0703L272.152 77.4102L272.533 77.1907L273.097 78.1683C273.191 78.3312 273.317 78.5485 273.485 78.7772C273.653 79.0059 273.747 79.1689 273.81 79.2775C274.175 79.972 274.36 80.4807 274.288 80.9205C274.216 81.3603 274.007 81.6257 273.615 81.8881C273.289 82.0762 272.901 82.1557 272.547 82.1067C272.193 82.0577 271.873 81.8803 271.599 81.5314C271.881 82.0202 271.961 82.4088 271.889 82.8486C271.828 83.2456 271.565 83.5424 271.185 83.7619C270.696 84.0441 270.179 84.0892 269.677 83.9086C269.174 83.728 268.709 83.2362 268.239 82.4215C268.145 82.2586 268.062 82.0528 267.968 81.8899C267.749 81.5097 267.635 81.2496 267.603 81.1953L267.039 80.2177L267.408 80.0411L267.807 80.6071L272.389 78.0703ZM268.576 82.1905C268.858 82.6793 269.144 82.9853 269.486 83.0771C269.829 83.169 270.163 83.1208 270.543 82.9013C270.924 82.6818 271.132 82.4164 271.201 82.1594C271.27 81.9024 271.191 81.5138 270.94 81.0793C270.658 80.5905 270.469 80.2647 270.407 80.1561L268.203 81.356C268.243 81.5503 268.357 81.8104 268.576 82.1905ZM271.092 80.3397L271.3 80.7627C271.488 81.0886 271.754 81.2974 272.011 81.3663C272.31 81.4466 272.602 81.387 272.982 81.1675C273.308 80.9793 273.505 80.7568 273.574 80.4998C273.643 80.2428 273.552 79.897 273.301 79.4625C273.207 79.2996 273.07 79.1252 272.988 78.9194L272.893 78.7565L270.841 79.9052C270.904 80.0138 270.967 80.1224 271.092 80.3397Z" fill="#F9B01F"/>
<path d="M278.95 89.5616L278.581 89.7382L278.194 89.1293L273.498 91.406L273.754 92.1633L273.385 92.34L272.357 90.1821L272.725 90.0054L273.113 90.6143L277.852 88.3491L276.666 85.9197L271.916 88.2277L272.172 88.985L271.804 89.1617L270.763 87.0466L271.132 86.87L271.489 87.4246L276.184 85.1478L275.96 84.4449L276.328 84.2682L278.95 89.5616Z" fill="#F9B01F"/>
<path d="M274.306 93.872C274.39 93.3893 274.633 92.9954 274.962 92.6245C275.334 92.265 275.791 91.9285 276.366 91.6692C276.94 91.41 277.523 91.2907 278.06 91.3428C278.597 91.3948 279.068 91.5211 279.493 91.8186C279.919 92.1162 280.224 92.5194 280.42 92.9852C280.751 93.8083 280.793 94.5081 280.438 95.1476C280.125 95.7985 279.482 96.3147 278.605 96.6764C277.987 96.9242 277.405 97.0435 276.868 96.9914C276.331 96.9394 275.817 96.8017 275.391 96.5041C274.966 96.2065 274.661 95.8034 274.422 95.326C274.279 94.8288 274.192 94.3003 274.306 93.872ZM278.884 92.2064C278.316 92.1 277.636 92.2392 276.759 92.6009C275.978 92.9427 275.412 93.342 275.103 93.8101C274.794 94.2782 274.711 94.7608 274.939 95.281C275.167 95.8011 275.549 96.0872 276.117 96.1936C276.686 96.3 277.409 96.1723 278.243 95.7991C279.023 95.4572 279.589 95.058 279.898 94.5899C280.207 94.1218 280.248 93.6277 280.063 93.119C279.835 92.5989 279.453 92.3128 278.884 92.2064Z" fill="#F9B01F"/>
<path d="M278.773 99.4761C277.996 99.6351 277.381 99.7001 276.942 99.6281C276.727 99.5707 276.513 99.5133 276.408 99.3932C276.259 99.2617 276.154 99.1416 276.071 98.9358C275.957 98.6757 275.918 98.4815 275.909 98.3415L276.538 98.0509C276.546 98.1908 276.629 98.3966 276.743 98.6567C276.763 98.7538 276.837 98.8196 276.911 98.8854C276.985 98.9512 277.071 98.9741 277.199 99.0086C277.982 99.1723 279.342 98.894 281.237 98.1622L281.854 97.9144L281.601 96.9743L282.012 96.8091L283.732 101.356L283.321 101.521L282.956 100.826L278.052 102.68L278.254 103.469L277.854 103.591L276.948 101.145L277.348 101.023L277.733 101.814L282.637 99.9606L282.051 98.3802L281.336 98.6479C280.393 99.0838 279.55 99.317 278.773 99.4761Z" fill="#F9B01F"/>
<path d="M283.767 103.11L283.628 102.43L284.028 102.307L285.369 106.385L284.177 106.892L284.023 106.438L284.709 105.933L284.098 103.933L281.837 104.659L282.31 105.979L283.021 105.894L283.175 106.348L281.315 106.952L281.161 106.497L281.801 106.164L281.383 104.812L279.014 105.601L279.837 107.841L281.008 107.925L281.01 108.431L279.533 108.632L278.059 104.197L278.459 104.075L278.749 104.703L283.767 103.11Z" fill="#F9B01F"/>
<path d="M285.924 109.794L285.463 108.431L283.663 108.637L283.533 108.097L285.724 107.628L287.166 112.697L285.003 113.403L284.861 112.906L286.487 112.148L286.135 110.722L281.023 112.153L281.261 113.319L280.861 113.441L279.988 110.361L280.388 110.238L280.758 111.256L285.924 109.794Z" fill="#F9B01F"/>
<path d="M284.599 116.968L284.519 116.579C284.413 116.459 284.199 116.402 283.899 116.321C283.6 116.241 283.245 116.192 282.806 116.12C282.366 116.048 282.066 115.968 281.852 115.91C281.638 115.853 281.521 115.776 281.501 115.678L281.251 114.556L281.639 114.476L281.785 114.79C281.816 114.845 281.933 114.922 282.093 115.011C282.264 115.057 282.521 115.126 282.852 115.26C283.238 115.363 283.581 115.455 283.88 115.536C284.126 115.647 284.329 115.748 284.477 115.879C284.495 115.471 284.629 115.139 284.838 114.874C285.101 114.577 285.427 114.389 285.816 114.31C286.453 114.159 286.978 114.254 287.306 114.571C287.635 114.889 287.905 115.42 288.076 116.155C288.127 116.306 288.155 116.543 288.184 116.781C288.2 117.06 288.24 117.255 288.291 117.406L288.573 118.583L288.173 118.706L287.894 118.034L282.796 119.239L282.912 120.005L282.535 120.042L281.941 117.633L282.33 117.553L282.586 118.311L284.746 117.788L284.599 116.968ZM287.752 116.849C287.724 116.611 287.696 116.374 287.656 116.18C287.545 115.737 287.388 115.466 287.166 115.268C286.943 115.071 286.577 115.065 286.135 115.176C285.692 115.286 285.366 115.475 285.2 115.751C285.034 116.028 284.985 116.382 285.096 116.825C285.207 117.268 285.266 117.56 285.329 117.668L287.835 117.054L287.752 116.849Z" fill="#F9B01F"/>
<path d="M288.738 121.566L288.428 120.151L286.62 120.218L286.532 119.689L288.764 119.415L289.774 124.552L287.571 125.064L287.483 124.535L289.161 123.929L288.948 122.494L283.726 123.482L283.867 124.668L283.478 124.747L282.854 121.596L283.242 121.516L283.558 122.565L288.738 121.566Z" fill="#F9B01F"/>
<path d="M284.518 129.433C284.73 128.985 285.071 128.571 285.505 128.32C285.951 128.027 286.503 127.853 287.128 127.745C287.743 127.68 288.334 127.701 288.825 127.924C289.328 128.105 289.741 128.445 290.089 128.86C290.437 129.274 290.622 129.783 290.699 130.355C290.767 130.786 290.769 131.292 290.694 131.914L290.668 132.183L289.171 132.287L289.095 131.715L290.112 131.345C290.178 131.271 290.224 131.1 290.227 130.917C290.23 130.734 290.256 130.465 290.185 130.217C290.137 129.883 289.991 129.568 289.737 129.317C289.483 129.065 289.164 128.887 288.735 128.773C288.307 128.658 287.844 128.672 287.284 128.705C286.756 128.793 286.313 128.904 285.89 129.112C285.467 129.32 285.172 129.562 284.952 129.871C284.732 130.179 284.671 130.576 284.708 130.953C284.768 131.244 284.796 131.482 284.89 131.644C284.941 131.796 285.047 131.916 285.152 132.036L286.009 132.266L286 132.814L284.774 132.761C284.755 132.664 284.715 132.47 284.589 132.253C284.507 132.047 284.413 131.884 284.373 131.69C284.333 131.495 284.251 131.289 284.234 131.01C284.243 130.461 284.295 129.924 284.518 129.433Z" fill="#F9B01F"/>
<path d="M291.235 135.548L290.815 135.574L290.625 134.742L286.391 135.123L287.467 135.732L290.658 137.873L290.896 137.845L290.919 137.07L291.339 137.045L291.548 139.351L291.128 139.376L290.977 138.739L285.752 139.221L285.74 139.952L285.32 139.977L285.123 137.629L285.543 137.604L285.713 138.338L289.99 137.969L288.945 137.414L285.723 135.219L285.443 135.236L285.419 136.01L284.999 136.035L284.802 133.687L285.222 133.662L285.361 134.342L290.586 133.859L290.63 133.182L291.05 133.157L291.235 135.548Z" fill="#F9B01F"/>
<path d="M291.812 144.701L289.615 144.847L289.582 144.287L291.276 143.961L291.264 142.121L285.968 142.355L285.943 143.817L285.523 143.842L285.353 140.537L285.773 140.512L285.897 141.418L291.108 141.161L291.166 140.259L291.586 140.233L291.812 144.701Z" fill="#F9B01F"/>
<path d="M291.325 146.177L291.412 145.512L291.82 145.53L291.803 147.821L291.395 147.803L291.31 147.092L289.062 147.086L289.044 150.065L291.292 150.071L291.379 149.405L291.787 149.423L291.781 151.671L291.373 151.653L291.277 150.985L286.038 151.004L285.951 151.67L285.543 151.652L285.549 149.404L285.957 149.422L286.042 150.133L288.473 150.142L288.491 147.162L286.06 147.154L285.962 147.862L285.553 147.844L285.527 145.542L285.936 145.56L286.032 146.228L291.325 146.177Z" fill="#F9B01F"/>
<path d="M291.795 154.705L291.78 155.619L285.888 157.391L285.793 157.917L285.385 157.899L285.476 155.674L285.884 155.692L285.926 156.391L287.212 156.047L287.318 153.597L286.11 153.135L286.012 153.844L285.604 153.826L285.68 151.826L286.089 151.844L286.134 152.361L291.795 154.705ZM290.421 155.209L291.155 155.038L290.396 154.789L287.723 153.797L287.612 155.925L290.421 155.209Z" fill="#F9B01F"/>
<path d="M287.452 160.29C286.681 160.083 286.135 159.891 285.753 159.605C285.562 159.462 285.413 159.33 285.362 159.179C285.268 159.016 285.271 158.833 285.274 158.65C285.3 158.382 285.303 158.199 285.381 158.082L286.069 158.083C286.035 158.211 286.02 158.437 285.994 158.705C285.971 158.791 285.991 158.888 286.054 158.997C286.074 159.094 286.148 159.16 286.265 159.237C286.87 159.72 288.252 160.045 290.271 160.219L290.948 160.262L291.115 159.297L291.523 159.315L291.098 164.159L290.689 164.141L290.67 163.356L285.472 162.881L285.297 163.706L284.888 163.689L285.126 161.089L285.534 161.107L285.53 161.978L290.728 162.453L290.865 160.745L290.102 160.678C289.071 160.586 288.191 160.442 287.452 160.29Z" fill="#F9B01F"/>
<path d="M288.191 167.466C288.105 168.131 287.87 168.665 287.467 168.97C287.107 169.287 286.621 169.386 286.041 169.323C285.418 169.248 284.95 168.939 284.657 168.493C284.363 168.047 284.286 167.475 284.373 166.81C284.396 166.724 284.419 166.639 284.399 166.541C284.379 166.444 284.445 166.37 284.479 166.242C284.56 165.942 284.597 165.63 284.666 165.373L284.836 164.225L285.233 164.286L285.221 165.017L290.436 165.772L290.662 165.098L291.059 165.158L290.696 167.54L290.299 167.48L290.249 166.64L288.307 166.349L288.191 167.466ZM284.931 166.271C284.908 166.356 284.862 166.528 284.859 166.711C284.775 167.193 284.866 167.539 285.109 167.833C285.351 168.128 285.671 168.305 286.165 168.346C286.605 168.418 286.993 168.338 287.234 168.127C287.517 167.928 287.651 167.597 287.735 167.114L287.867 166.277L285.034 165.885C284.988 166.057 284.954 166.185 284.931 166.271ZM289.861 173.055L289.464 172.995L289.488 172.22L284.316 171.477L284.109 172.248L283.712 172.188L284.044 169.752L284.441 169.812L284.417 170.586L289.589 171.329L289.796 170.558L290.193 170.619L289.861 173.055Z" fill="#F9B01F"/>
<path d="M288.595 176.756L288.853 176.136L289.238 176.239L288.727 178.49L288.341 178.386L288.397 177.667L286.189 177.167L285.549 180.071L287.756 180.571L288.014 179.951L288.399 180.055L287.9 182.262L287.514 182.159L287.558 181.482L282.435 180.385L282.22 181.016L281.834 180.912L282.334 178.705L282.719 178.808L282.676 179.485L285.066 179.988L285.706 177.084L283.316 176.581L283.078 177.297L282.693 177.194L283.204 174.944L283.589 175.047L283.546 175.724L288.595 176.756Z" fill="#F9B01F"/>
<path d="M287.228 185.112L286.987 186.011L280.868 186.575L280.645 187.066L280.259 186.963L280.79 184.81L281.176 184.913L281.078 185.622L282.38 185.557L282.969 183.19L281.861 182.526L281.592 183.189L281.207 183.085L281.68 181.146L282.066 181.25L282.014 181.787L287.228 185.112ZM285.806 185.282L286.591 185.263L285.909 184.896L283.503 183.425L282.995 185.493L285.806 185.282Z" fill="#F9B01F"/>
<path d="M284.738 191.836L285.15 190.983L285.524 191.129L284.822 193.236L280.854 193.137L279.769 193.076L280.717 193.651L283.947 195.986L283.245 198.093L282.871 197.947L283.069 197.036L277.88 196.013L277.568 196.664L277.194 196.518L277.954 194.196L278.328 194.342L278.176 195.082L281.894 195.94L283.501 196.279L282.46 195.541L278.741 192.8L278.922 192.298L283.192 192.294L284.88 192.333L283.364 191.652L279.873 190.119L279.526 190.899L279.152 190.753L279.843 188.688L280.217 188.834L280.076 189.531L284.738 191.836Z" fill="#F9B01F"/>
<path d="M282.064 201.128L281.738 202.004L275.599 201.783L275.345 202.219L274.971 202.073L275.801 200L276.175 200.147L275.992 200.832L277.303 200.908L278.191 198.621L277.172 197.797L276.817 198.436L276.443 198.29L277.174 196.42L277.548 196.566L277.453 197.092L282.064 201.128ZM280.602 201.103L281.364 201.17L280.748 200.729L278.562 198.95L277.797 200.948L280.602 201.103Z" fill="#F9B01F"/>
<path d="M279.78 205.198L280.155 204.656L280.529 204.802L280.071 205.827C279.971 206.03 279.925 206.201 279.836 206.361C279.713 206.649 279.644 206.906 279.532 207.152C279.197 207.888 278.845 208.345 278.422 208.553C278.011 208.718 277.548 208.732 276.971 208.486C276.566 208.285 276.258 208.065 276.027 207.728C275.796 207.39 275.705 207.044 275.68 206.625C275.654 206.205 275.769 205.776 275.97 205.371C276.058 205.211 276.093 205.083 276.181 204.923C276.27 204.763 276.293 204.677 276.347 204.646L274.66 203.918L274.116 204.92L273.742 204.774L274.871 202.276L275.245 202.422L275.018 203.096L279.78 205.198ZM276.375 205.571C276.174 205.977 276.168 206.342 276.291 206.742C276.413 207.142 276.753 207.417 277.329 207.663C277.778 207.875 278.143 207.881 278.403 207.768C278.718 207.622 278.938 207.314 279.15 206.866C279.239 206.706 279.285 206.535 279.342 206.32C279.376 206.192 279.399 206.106 279.411 206.063L276.656 204.866C276.621 204.995 276.51 205.24 276.375 205.571Z" fill="#F9B01F"/>
<path d="M272.358 208.397C272.793 208.146 273.29 208.004 273.796 208.002C274.344 208.011 274.901 208.16 275.466 208.45C276.031 208.739 276.488 209.091 276.782 209.537C277.118 209.994 277.26 210.491 277.305 211.008C277.351 211.525 277.256 212.051 276.978 212.573C276.778 212.979 276.48 213.404 276.117 213.903L275.962 214.137L274.64 213.416L274.864 212.925L275.935 213.212C276.032 213.192 276.152 213.086 276.283 212.938C276.415 212.79 276.515 212.587 276.67 212.353C276.847 212.033 276.885 211.722 276.805 211.333C276.757 210.999 276.569 210.673 276.295 210.324C276.01 210.018 275.627 209.732 275.105 209.455C274.614 209.231 274.154 209.062 273.714 208.99C273.275 208.918 272.855 208.943 272.486 209.12C272.129 209.254 271.877 209.508 271.677 209.913C271.553 210.202 271.453 210.404 271.45 210.587C271.404 210.758 271.413 210.898 271.464 211.05L272.066 211.716L271.768 212.141L270.769 211.415C270.804 211.286 270.85 211.115 270.907 210.901C270.964 210.687 270.968 210.504 271.025 210.29C271.071 210.118 271.183 209.873 271.294 209.627C271.572 209.105 271.912 208.691 272.358 208.397Z" fill="#F9B01F"/>
<path d="M272.526 220.792L272.175 220.56L272.521 219.781L268.867 217.654L269.397 218.76L270.724 222.375L270.927 222.475L271.41 221.87L271.761 222.102L270.588 224.083L270.237 223.851L270.495 223.232L265.967 220.595L265.538 221.169L265.176 220.98L266.361 218.956L266.723 219.145L266.4 219.839L270.085 222.02L269.532 221L268.216 217.342L267.94 217.176L267.445 217.823L267.082 217.635L268.279 215.568L268.641 215.757L268.372 216.419L272.899 219.055L273.317 218.525L273.668 218.756L272.526 220.792Z" fill="#F9B01F"/>
<path d="M269.498 225.581C269.386 225.827 269.329 226.041 269.24 226.201C269.152 226.361 269.063 226.521 268.986 226.638C268.599 227.223 268.216 227.625 267.804 227.79C267.393 227.955 266.984 227.938 266.591 227.695C266.197 227.451 266.009 227.125 265.929 226.737C265.849 226.348 265.899 225.994 266.056 225.577C265.759 226.002 265.41 226.276 265.021 226.356C264.633 226.435 264.278 226.386 263.927 226.155C263.416 225.834 263.111 225.431 263.066 224.914C263.01 224.44 263.17 223.84 263.634 223.138C263.8 222.861 263.997 222.638 264.195 222.416C264.38 222.236 264.555 222.099 264.675 221.994C264.795 221.888 264.861 221.814 264.904 221.825L266.04 222.726L265.808 223.078L264.771 222.662C264.5 222.819 264.248 223.073 263.951 223.498C263.73 223.806 263.693 224.118 263.752 224.409C263.812 224.7 264.066 224.952 264.46 225.195C264.737 225.361 265.036 225.442 265.371 225.394C265.705 225.345 266 225.103 266.243 224.709L266.563 224.198L266.957 224.441L266.714 224.835C266.571 225.027 266.514 225.241 266.456 225.455C266.442 225.681 266.47 225.918 266.552 226.123C266.635 226.329 266.815 226.515 267.049 226.67C267.357 226.89 267.668 226.927 267.917 226.856C268.166 226.785 268.406 226.574 268.626 226.266C268.769 226.075 268.869 225.872 268.872 225.689C268.918 225.518 268.91 225.378 268.847 225.269L268.265 224.7L268.563 224.275L269.682 224.896C269.656 225.165 269.567 225.324 269.498 225.581Z" fill="#F9B01F"/>
<path d="M265.086 231.423L265.589 230.916L265.941 231.147L265.28 232.072C265.148 232.22 265.048 232.423 264.882 232.7C264.727 232.934 264.638 233.094 264.561 233.211C264.121 233.827 263.694 234.218 263.294 234.341C262.894 234.463 262.497 234.402 262.158 234.128C261.85 233.907 261.607 233.613 261.528 233.224C261.437 232.879 261.486 232.525 261.632 232.15C261.334 232.576 260.985 232.85 260.585 232.972C260.197 233.051 259.8 232.991 259.46 232.716C259.004 232.364 258.753 231.93 258.708 231.413C258.662 230.896 258.889 230.222 259.45 229.5C259.581 229.352 259.67 229.192 259.802 229.043C260.076 228.704 260.231 228.47 260.285 228.438L260.946 227.514L261.297 227.745L260.954 228.342L265.086 231.423ZM259.715 229.709C259.363 230.165 259.248 230.594 259.254 230.917C259.259 231.239 259.49 231.577 259.841 231.808C260.181 232.083 260.523 232.175 260.815 232.115C261.106 232.056 261.401 231.813 261.687 231.431C262.039 230.974 262.216 230.654 262.294 230.537L260.253 229.072C260.199 229.104 260.001 229.326 259.715 229.709ZM262.444 231.175L262.158 231.557C261.938 231.865 261.857 232.165 261.917 232.456C261.977 232.748 262.176 233.031 262.485 233.251C262.793 233.472 263.093 233.552 263.373 233.535C263.621 233.464 263.904 233.264 264.202 232.839C264.333 232.691 264.434 232.488 264.522 232.328L264.611 232.168L262.73 230.792C262.707 230.878 262.587 230.983 262.444 231.175Z" fill="#F9B01F"/>
<path d="M261.131 237.617L260.571 238.339L254.732 236.316L254.36 236.675L254.02 236.4L255.405 234.66L255.744 234.934L255.358 235.519L256.566 235.981L258.094 234.049L257.369 232.982L256.866 233.49L256.526 233.216L257.768 231.666L258.107 231.941L257.841 232.42L261.131 237.617ZM259.741 237.153L260.446 237.434L259.973 236.802L258.399 234.452L257.08 236.118L259.741 237.153Z" fill="#F9B01F"/>
<path d="M253.31 237.679C253.808 237.537 254.313 237.535 254.827 237.672C255.341 237.81 255.852 238.131 256.34 238.537C256.828 238.943 257.165 239.401 257.35 239.909C257.535 240.418 257.58 240.935 257.485 241.46C257.39 241.986 257.124 242.466 256.783 242.879C256.509 243.219 256.094 243.567 255.625 243.946L255.397 244.115L254.307 243.042L254.69 242.64L255.649 243.172C255.746 243.152 255.898 243.101 256.072 242.964C256.235 242.87 256.421 242.69 256.575 242.456C256.827 242.202 256.962 241.871 256.968 241.506C257.017 241.151 256.926 240.806 256.706 240.426C256.487 240.045 256.225 239.654 255.768 239.302C255.354 238.961 254.972 238.675 254.555 238.518C254.138 238.36 253.741 238.3 253.364 238.336C252.987 238.373 252.661 238.561 252.386 238.901C252.189 239.123 252.046 239.314 252 239.486C251.911 239.646 251.92 239.786 251.885 239.914L252.27 240.706L251.855 241.054L251.097 240.116C251.162 240.042 251.251 239.882 251.363 239.636C251.463 239.434 251.552 239.274 251.641 239.114C251.729 238.954 251.872 238.763 252.07 238.54C252.356 238.158 252.813 237.821 253.31 237.679Z" fill="#F9B01F"/>
<path d="M251.546 246.664C251.688 247.161 251.701 247.624 251.587 248.052C251.472 248.48 251.272 248.886 250.911 249.202C250.528 249.604 250.093 249.855 249.651 249.966C249.208 250.077 248.714 250.036 248.254 249.867C247.794 249.698 247.326 249.389 246.881 248.995C246.404 248.546 246.037 248.034 245.863 247.482C245.678 246.974 245.59 246.445 245.716 245.974C245.8 245.491 246.054 245.054 246.383 244.684C246.767 244.281 247.201 244.03 247.655 243.877C248.098 243.766 248.593 243.806 249.052 243.975C249.512 244.145 249.98 244.454 250.425 244.848L251.378 243.864L249.589 242.145L249.011 242.587L248.726 242.281L250.325 240.598L250.621 240.861L250.192 241.435L253.95 245.058L254.473 244.648L254.758 244.953L253.171 246.594L252.886 246.288L253.315 245.714L251.674 244.127L250.722 245.111C251.164 245.689 251.403 246.166 251.546 246.664ZM251.016 247.44C250.885 246.9 250.498 246.291 249.841 245.656C249.259 245.087 248.663 244.743 248.094 244.637C247.526 244.531 247.029 244.673 246.646 245.075C246.262 245.477 246.148 245.906 246.278 246.446C246.409 246.986 246.797 247.595 247.496 248.241C248.078 248.81 248.632 249.142 249.189 249.292C249.745 249.441 250.2 249.287 250.583 248.885C250.966 248.482 251.093 248.011 251.016 247.44Z" fill="#F9B01F"/>
<path d="M243.31 251.527C242.956 251.478 242.485 251.352 241.928 251.202C241.542 251.099 241.243 251.019 241.028 250.961C240.857 250.916 240.717 250.924 240.608 250.987L240.294 251.132L240.009 250.826L240.752 250.107C240.861 250.044 241.012 249.993 241.312 250.073C241.569 250.142 241.955 250.246 242.469 250.383C243.014 250.575 243.442 250.69 243.797 250.739C244.096 250.819 244.334 250.791 244.465 250.643L244.837 250.283L243.199 248.513L242.579 248.944L242.294 248.638L243.998 247.074L244.283 247.38L243.823 247.9L247.383 251.746L247.949 251.347L248.234 251.653L246.584 253.185L246.299 252.879L246.728 252.305L245.091 250.535L244.545 251.031L244.947 253.985L245.513 253.586L245.798 253.892L244.268 255.319L243.983 255.013L244.401 254.482L244.064 251.454C243.987 251.571 243.664 251.576 243.31 251.527Z" fill="#F9B01F"/>
<path d="M239.127 252.059C239.602 252.002 240.084 252.086 240.521 252.34C241.012 252.564 241.414 252.947 241.837 253.427C242.259 253.908 242.529 254.439 242.66 254.98C242.791 255.52 242.793 256.025 242.624 256.485C242.455 256.945 242.2 257.381 241.786 257.729C241.131 258.288 240.428 258.513 239.72 258.415C239.011 258.317 238.352 257.865 237.676 257.133C237.254 256.653 236.983 256.121 236.852 255.581C236.721 255.041 236.719 254.535 236.9 254.033C237.038 253.519 237.324 253.136 237.738 252.788C238.187 252.312 238.653 252.115 239.127 252.059ZM242.085 255.927C242.008 255.356 241.675 254.716 241.073 254.049C240.514 253.394 239.972 253.02 239.426 252.828C238.881 252.636 238.395 252.735 237.981 253.083C237.566 253.431 237.397 253.891 237.473 254.462C237.55 255.033 237.883 255.674 238.474 256.383C239.033 257.038 239.575 257.412 240.121 257.604C240.677 257.754 241.163 257.654 241.578 257.306C241.992 256.958 242.161 256.499 242.085 255.927Z" fill="#F9B01F"/>
<path d="M238.167 259.927L238.764 259.582L239.038 259.931L238.166 260.616C238.003 260.71 237.817 260.89 237.62 261.112C237.434 261.292 237.26 261.429 237.151 261.491C236.519 261.965 236.042 262.204 235.622 262.229C235.202 262.255 234.84 262.066 234.566 261.717C234.323 261.422 234.189 261.065 234.196 260.7C234.202 260.334 234.336 260.003 234.6 259.706C234.185 260.054 233.773 260.219 233.365 260.202C232.957 260.184 232.594 259.995 232.32 259.646C231.984 259.189 231.841 258.692 231.936 258.166C232.031 257.641 232.46 257.067 233.158 256.519C233.332 256.382 233.495 256.288 233.615 256.183C233.964 255.909 234.181 255.784 234.247 255.709L235.119 255.025L235.35 255.362L234.847 255.87L238.167 259.927ZM233.486 256.837C233.029 257.173 232.797 257.524 232.748 257.878C232.699 258.233 232.79 258.578 233.064 258.927C233.337 259.276 233.614 259.442 233.926 259.48C234.237 259.517 234.551 259.372 234.955 259.067C235.412 258.73 235.706 258.488 235.784 258.371L234.246 256.398C234.075 256.352 233.846 256.52 233.486 256.837ZM235.709 258.993L235.36 259.267C235.065 259.509 234.899 259.786 234.862 260.098C234.824 260.409 234.927 260.712 235.212 261.018C235.455 261.312 235.731 261.478 236 261.504C236.268 261.53 236.583 261.385 236.986 261.08C237.16 260.943 237.292 260.795 237.466 260.658L237.586 260.552L236.155 258.7C236.003 258.751 235.883 258.856 235.709 258.993Z" fill="#F9B01F"/>
<path d="M52.1733 48.9976C52.1733 49.4954 51.7697 49.899 51.2718 49.899C50.774 49.899 50.3704 49.4954 50.3704 48.9976C50.3704 48.4997 50.774 48.0961 51.2718 48.0961C51.7697 48.0961 52.1733 48.4997 52.1733 48.9976Z" fill="#F9B01F"/>
<path d="M234.488 37.4459C234.488 37.9437 234.085 38.3473 233.587 38.3473C233.089 38.3473 232.685 37.9437 232.685 37.4459C232.685 36.948 233.089 36.5444 233.587 36.5444C234.085 36.5444 234.488 36.948 234.488 37.4459Z" fill="#F9B01F"/>
</g>
</svg>
